<svg xmlns="http://www.w3.org/2000/svg" viewBox="0 0 900 1020" width="900" height="1020">
  <defs>
    <style>
      .title     { font-family: 'Helvetica Neue', Arial, sans-serif; font-size: 20px; font-weight: 700; fill: #263238; }
      .subtitle  { font-family: 'Helvetica Neue', Arial, sans-serif; font-size: 11px; fill: #90A4AE; }
      .label     { font-family: 'Helvetica Neue', Arial, sans-serif; font-size: 13px; font-weight: 600; fill: #263238; }
      .sublabel  { font-family: 'Helvetica Neue', Arial, sans-serif; font-size: 11px; fill: #78909C; }
      .badge     { font-family: 'Helvetica Neue', Arial, sans-serif; font-size: 9px; font-weight: 700; fill: #fff; letter-spacing: 0.4px; }
      .opt-badge { font-family: 'Helvetica Neue', Arial, sans-serif; font-size: 9px; font-weight: 700; fill: #fff; letter-spacing: 0.4px; }
      .caption   { font-family: 'Helvetica Neue', Arial, sans-serif; font-size: 11px; font-style: italic; fill: #607D8B; }
      .parallel-note { font-family: 'Helvetica Neue', Arial, sans-serif; font-size: 10.5px; font-weight: 700; fill: #D84315; letter-spacing: 0.3px; }
      .legend-title  { font-family: 'Helvetica Neue', Arial, sans-serif; font-size: 12px; font-weight: 700; fill: #37474F; }
      .legend-text   { font-family: 'Helvetica Neue', Arial, sans-serif; font-size: 10.5px; fill: #607D8B; }
    </style>
    <marker id="arrow-main" viewBox="0 0 10 10" refX="8" refY="5" markerWidth="5" markerHeight="5" orient="auto">
      <path d="M0,0 L10,5 L0,10 z" fill="#00897B"/>
    </marker>
    <marker id="arrow-opt" viewBox="0 0 10 10" refX="8" refY="5" markerWidth="5" markerHeight="5" orient="auto">
      <path d="M0,0 L10,5 L0,10 z" fill="#9E9E9E"/>
    </marker>
    <marker id="arrow-out" viewBox="0 0 10 10" refX="8" refY="5" markerWidth="5" markerHeight="5" orient="auto">
      <path d="M0,0 L10,5 L0,10 z" fill="#F57C00"/>
    </marker>
  </defs>

  <rect width="900" height="1020" fill="#ffffff"/>

  <!-- ══════ TITLE ══════ -->
  <text x="450" y="36" text-anchor="middle" class="title">SpectrafUSE Pipeline</text>
  <text x="450" y="54" text-anchor="middle" class="subtitle">One workflow — supply <tspan font-family="'Courier New', monospace" font-size="10">--existing_cluster_db</tspan> to merge into a prior cluster DB instead of starting fresh.</text>

  <!-- ══════════════════════════════════════════════════════════════════════════ -->
  <!--                           INPUTS (row 1)                                    -->
  <!-- ══════════════════════════════════════════════════════════════════════════ -->

  <!-- Optional input: existing cluster DB (left, dashed) -->
  <g transform="translate(175, 110)">
    <circle cx="0" cy="0" r="10" fill="none" stroke="#9E9E9E" stroke-width="2"/>
    <text x="0" y="28" text-anchor="middle" class="label" fill="#616161">--existing_cluster_db</text>
    <text x="0" y="42" text-anchor="middle" class="sublabel">prior cluster_metadata.parquet (optional)</text>
  </g>

  <!-- Primary input: QPX -->
  <g transform="translate(560, 110)">
    <circle cx="0" cy="0" r="10" fill="#1565C0" stroke="#fff" stroke-width="2"/>
    <text x="0" y="28" text-anchor="middle" class="label" fill="#1565C0">QPX Parquet Projects</text>
    <text x="0" y="42" text-anchor="middle" class="sublabel">.psm.parquet · .run.parquet · .sample.parquet</text>
  </g>

  <!-- ══════════════════════════════════════════════════════════════════════════ -->
  <!--                           PER-SOURCE CONVERSION (row 2)                     -->
  <!-- ══════════════════════════════════════════════════════════════════════════ -->

  <!-- Arrows from inputs down -->
  <line x1="175" y1="124" x2="175" y2="206" stroke="#9E9E9E" stroke-width="2.5" stroke-linecap="round" stroke-dasharray="5,3" marker-end="url(#arrow-opt)"/>
  <line x1="560" y1="124" x2="560" y2="206" stroke="#00897B" stroke-width="3.5" stroke-linecap="round" marker-end="url(#arrow-main)"/>

  <!-- EXTRACT_REPS_DAT — parallel per existing-partition (shadows offset right-down) -->
  <g transform="translate(175, 224)">
    <!-- parallel shadow copies -->
    <rect x="-82" y="-10" width="164" height="20" rx="4" fill="#FFCDD2" stroke="#D84315" stroke-width="1.5" stroke-dasharray="3,2" transform="translate(10, 10)" opacity="0.6"/>
    <rect x="-82" y="-10" width="164" height="20" rx="4" fill="#FFCDD2" stroke="#D84315" stroke-width="1.5" stroke-dasharray="3,2" transform="translate(5, 5)" opacity="0.8"/>
    <!-- primary dashed box -->
    <rect x="-82" y="-10" width="164" height="20" rx="4" fill="#FAFAFA" stroke="#9E9E9E" stroke-width="2" stroke-dasharray="3,2"/>
    <rect x="-78" y="-8" width="156" height="16" rx="3" fill="#9E9E9E"/>
    <text x="0" y="3" text-anchor="middle" class="opt-badge">EXTRACT_REPS_DAT</text>
  </g>
  <text x="175" y="268" text-anchor="middle" class="sublabel">one consensus spectrum per cluster</text>
  <text x="175" y="282" text-anchor="middle" class="sublabel" font-style="italic">scan_title = rep:{cluster_id}</text>
  <text x="265" y="238" class="parallel-note">× partitions</text>

  <!-- PARQUET_TO_DAT — parallel per QPX project -->
  <g transform="translate(560, 224)">
    <rect x="-82" y="-10" width="164" height="20" rx="4" fill="#FFCDD2" stroke="#D84315" stroke-width="1.5" transform="translate(10, 10)" opacity="0.6"/>
    <rect x="-82" y="-10" width="164" height="20" rx="4" fill="#FFCDD2" stroke="#D84315" stroke-width="1.5" transform="translate(5, 5)" opacity="0.8"/>
    <rect x="-82" y="-10" width="164" height="20" rx="4" fill="#fff" stroke="#00897B" stroke-width="2"/>
    <rect x="-78" y="-8" width="156" height="16" rx="3" fill="#00897B"/>
    <text x="0" y="3" text-anchor="middle" class="badge">PARQUET_TO_DAT</text>
  </g>
  <text x="560" y="268" text-anchor="middle" class="sublabel">convert PSMs to MaRaCluster .dat</text>
  <text x="560" y="282" text-anchor="middle" class="sublabel" font-style="italic">~100 bytes/spectrum</text>
  <text x="650" y="238" class="parallel-note">× projects</text>

  <!-- ══════════════════════════════════════════════════════════════════════════ -->
  <!--                  SHARED CLUSTERING SPINE (row 3+)                            -->
  <!-- ══════════════════════════════════════════════════════════════════════════ -->

  <!-- Partition box -->
  <rect x="120" y="330" width="660" height="480" rx="12" fill="#F5FBFA" stroke="#E0F2F1" stroke-width="1"/>
  <text x="450" y="352" text-anchor="middle" class="caption">per partition — species / charge (or species / instrument / charge when <tspan font-family="'Courier New', monospace" font-size="10.5">--skip_instrument</tspan> is off)</text>

  <!-- Two streams converge on CONCAT -->
  <path d="M 175,290 C 175,330 280,350 438,388" fill="none" stroke="#9E9E9E" stroke-width="2.5" stroke-linecap="round" stroke-dasharray="5,3" marker-end="url(#arrow-opt)"/>
  <path d="M 560,290 C 560,330 500,350 462,388" fill="none" stroke="#00897B" stroke-width="3.5" stroke-linecap="round" marker-end="url(#arrow-main)"/>

  <!-- CONCAT_DAT_FILES -->
  <g transform="translate(450, 400)">
    <rect x="-90" y="-10" width="180" height="20" rx="4" fill="#FFCDD2" stroke="#D84315" stroke-width="1.5" transform="translate(10, 10)" opacity="0.6"/>
    <rect x="-90" y="-10" width="180" height="20" rx="4" fill="#FFCDD2" stroke="#D84315" stroke-width="1.5" transform="translate(5, 5)" opacity="0.8"/>
    <rect x="-90" y="-10" width="180" height="20" rx="4" fill="#fff" stroke="#00897B" stroke-width="2"/>
    <rect x="-86" y="-8" width="172" height="16" rx="3" fill="#00897B"/>
    <text x="0" y="3" text-anchor="middle" class="badge">CONCAT_DAT_FILES</text>
  </g>
  <text x="450" y="444" text-anchor="middle" class="sublabel">concatenate .dat per charge (reps + new data, renumber scannr)</text>
  <text x="560" y="414" class="parallel-note">× partitions</text>
  <line x1="450" y1="458" x2="450" y2="490" stroke="#00897B" stroke-width="3.5" stroke-linecap="round" marker-end="url(#arrow-main)"/>

  <!-- SPLIT_MZ_WINDOWS -->
  <g transform="translate(450, 504)">
    <rect x="-90" y="-10" width="180" height="20" rx="4" fill="#FFCDD2" stroke="#D84315" stroke-width="1.5" transform="translate(10, 10)" opacity="0.6"/>
    <rect x="-90" y="-10" width="180" height="20" rx="4" fill="#FFCDD2" stroke="#D84315" stroke-width="1.5" transform="translate(5, 5)" opacity="0.8"/>
    <rect x="-90" y="-10" width="180" height="20" rx="4" fill="#fff" stroke="#00897B" stroke-width="2"/>
    <rect x="-86" y="-8" width="172" height="16" rx="3" fill="#00897B"/>
    <text x="0" y="3" text-anchor="middle" class="badge">SPLIT_MZ_WINDOWS</text>
  </g>
  <text x="450" y="548" text-anchor="middle" class="sublabel">precursor m/z windowing — default 300 Da, 1 Da overlap</text>
  <text x="560" y="518" class="parallel-note">× partitions</text>
  <line x1="450" y1="562" x2="450" y2="594" stroke="#00897B" stroke-width="3.5" stroke-linecap="round" marker-end="url(#arrow-main)"/>

  <!-- RUN_MARACLUSTER_DAT — the highly-parallel step -->
  <g transform="translate(450, 608)">
    <!-- Extra parallel shadows — more than the other steps, indicating high parallelism -->
    <rect x="-90" y="-10" width="180" height="20" rx="4" fill="#FFAB91" stroke="#BF360C" stroke-width="1.5" transform="translate(18, 18)" opacity="0.4"/>
    <rect x="-90" y="-10" width="180" height="20" rx="4" fill="#FFAB91" stroke="#BF360C" stroke-width="1.5" transform="translate(14, 14)" opacity="0.55"/>
    <rect x="-90" y="-10" width="180" height="20" rx="4" fill="#FFAB91" stroke="#BF360C" stroke-width="1.5" transform="translate(10, 10)" opacity="0.7"/>
    <rect x="-90" y="-10" width="180" height="20" rx="4" fill="#FFAB91" stroke="#BF360C" stroke-width="1.5" transform="translate(5, 5)" opacity="0.85"/>
    <rect x="-90" y="-10" width="180" height="20" rx="4" fill="#fff" stroke="#00897B" stroke-width="2"/>
    <rect x="-86" y="-8" width="172" height="16" rx="3" fill="#00897B"/>
    <text x="0" y="3" text-anchor="middle" class="badge">RUN_MARACLUSTER_DAT</text>
  </g>
  <text x="450" y="662" text-anchor="middle" class="sublabel">cluster each window with MaRaCluster (-D, reads .dat directly)</text>
  <text x="570" y="622" class="parallel-note" fill="#BF360C">× partitions × windows</text>
  <line x1="450" y1="676" x2="450" y2="708" stroke="#00897B" stroke-width="3.5" stroke-linecap="round" marker-end="url(#arrow-main)"/>

  <!-- MERGE_MZ_WINDOWS -->
  <g transform="translate(450, 722)">
    <rect x="-90" y="-10" width="180" height="20" rx="4" fill="#FFCDD2" stroke="#D84315" stroke-width="1.5" transform="translate(10, 10)" opacity="0.6"/>
    <rect x="-90" y="-10" width="180" height="20" rx="4" fill="#FFCDD2" stroke="#D84315" stroke-width="1.5" transform="translate(5, 5)" opacity="0.8"/>
    <rect x="-90" y="-10" width="180" height="20" rx="4" fill="#fff" stroke="#00897B" stroke-width="2"/>
    <rect x="-86" y="-8" width="172" height="16" rx="3" fill="#00897B"/>
    <text x="0" y="3" text-anchor="middle" class="badge">MERGE_MZ_WINDOWS</text>
  </g>
  <text x="450" y="766" text-anchor="middle" class="sublabel">reconcile overlap zones (lowest-window-index wins)</text>
  <text x="560" y="736" class="parallel-note">× partitions</text>

  <!-- ══════════════════════════════════════════════════════════════════════════ -->
  <!--                           BUILD + MSP (row 4)                               -->
  <!-- ══════════════════════════════════════════════════════════════════════════ -->

  <line x1="450" y1="780" x2="450" y2="820" stroke="#00897B" stroke-width="3.5" stroke-linecap="round"/>
  <!-- split into two siblings -->
  <path d="M 450,820 L 310,840" fill="none" stroke="#00897B" stroke-width="3.5" stroke-linecap="round" marker-end="url(#arrow-main)"/>
  <path d="M 450,820 L 590,840" fill="none" stroke="#00897B" stroke-width="3.5" stroke-linecap="round" marker-end="url(#arrow-main)"/>

  <!-- BUILD_CLUSTER_DB / MERGE_INTO_EXISTING_DB -->
  <g transform="translate(310, 854)">
    <rect x="-100" y="-10" width="200" height="20" rx="4" fill="#FFCDD2" stroke="#D84315" stroke-width="1.5" transform="translate(10, 10)" opacity="0.6"/>
    <rect x="-100" y="-10" width="200" height="20" rx="4" fill="#FFCDD2" stroke="#D84315" stroke-width="1.5" transform="translate(5, 5)" opacity="0.8"/>
    <rect x="-100" y="-10" width="200" height="20" rx="4" fill="#fff" stroke="#00897B" stroke-width="2"/>
    <rect x="-96" y="-8" width="192" height="16" rx="3" fill="#00897B"/>
    <text x="0" y="3" text-anchor="middle" class="badge">BUILD_CLUSTER_DB / MERGE_INTO_EXISTING_DB</text>
  </g>
  <text x="310" y="900" text-anchor="middle" class="sublabel">cluster DB parquets · resolves rep: IDs when merging</text>
  <text x="310" y="914" text-anchor="middle" class="sublabel" font-style="italic">provenance: is_reused_cluster · source_datasets</text>
  <text x="310" y="878" text-anchor="middle" class="parallel-note">× partitions</text>

  <!-- GENERATE_MSP_FORMAT -->
  <g transform="translate(590, 854)">
    <rect x="-95" y="-10" width="190" height="20" rx="4" fill="#FFCDD2" stroke="#D84315" stroke-width="1.5" transform="translate(10, 10)" opacity="0.6"/>
    <rect x="-95" y="-10" width="190" height="20" rx="4" fill="#FFCDD2" stroke="#D84315" stroke-width="1.5" transform="translate(5, 5)" opacity="0.8"/>
    <rect x="-95" y="-10" width="190" height="20" rx="4" fill="#fff" stroke="#00897B" stroke-width="2"/>
    <rect x="-91" y="-8" width="182" height="16" rx="3" fill="#00897B"/>
    <text x="0" y="3" text-anchor="middle" class="badge">GENERATE_MSP_FORMAT</text>
  </g>
  <text x="590" y="900" text-anchor="middle" class="sublabel">consensus spectral library</text>
  <text x="590" y="914" text-anchor="middle" class="sublabel" font-style="italic">*.msp.gz per partition</text>
  <text x="590" y="878" text-anchor="middle" class="parallel-note">× partitions</text>

  <!-- Arrows from the two tail processes to the output cylinders -->
  <line x1="310" y1="924" x2="310" y2="960" stroke="#F57C00" stroke-width="3" stroke-linecap="round" marker-end="url(#arrow-out)"/>
  <line x1="590" y1="924" x2="590" y2="960" stroke="#F57C00" stroke-width="3" stroke-linecap="round" marker-end="url(#arrow-out)"/>

  <!-- ══════ OUTPUTS ══════ -->
  <g transform="translate(310, 976)">
    <circle cx="0" cy="0" r="9" fill="none" stroke="#F57C00" stroke-width="2.5"/>
    <text x="0" y="-16" text-anchor="middle" class="label" fill="#F57C00">Cluster DB</text>
  </g>
  <g transform="translate(590, 976)">
    <circle cx="0" cy="0" r="9" fill="none" stroke="#F57C00" stroke-width="2.5"/>
    <text x="0" y="-16" text-anchor="middle" class="label" fill="#F57C00">MSP Library</text>
  </g>

  <!-- ══════ LEGEND (bottom-left, no longer overlaps inputs) ══════ -->
  <g transform="translate(60, 920)">
    <rect x="0" y="0" width="200" height="80" rx="6" fill="#FAFAFA" stroke="#ECEFF1" stroke-width="1"/>
    <text x="12" y="18" class="legend-title">LEGEND</text>
    <rect x="14" y="27" width="14" height="10" rx="2" fill="#fff" stroke="#00897B" stroke-width="2"/>
    <text x="36" y="36" class="legend-text">Process (runs once)</text>
    <rect x="14" y="43" width="14" height="10" rx="2" fill="#FFCDD2" stroke="#D84315" stroke-width="1.5"/>
    <text x="36" y="52" class="legend-text">Red shadows = parallel instances</text>
    <line x1="14" y1="64" x2="28" y2="64" stroke="#9E9E9E" stroke-width="2.5" stroke-dasharray="5,3"/>
    <text x="36" y="68" class="legend-text">Optional (<tspan font-family="'Courier New', monospace" font-size="9.5">--existing_cluster_db</tspan>)</text>
  </g>

  <!-- Parallelism guide (bottom-right) -->
  <g transform="translate(640, 920)">
    <rect x="0" y="0" width="220" height="80" rx="6" fill="#FFF3E0" stroke="#FFE0B2" stroke-width="1"/>
    <text x="12" y="18" class="legend-title" fill="#BF360C">PARALLELISM</text>
    <text x="12" y="36" class="legend-text"><tspan class="parallel-note">× partitions</tspan> — one job per species/charge</text>
    <text x="12" y="52" class="legend-text"><tspan class="parallel-note">× projects</tspan> — one job per QPX input</text>
    <text x="12" y="68" class="legend-text"><tspan class="parallel-note" fill="#BF360C">× partitions × windows</tspan> — MaRaCluster fan-out</text>
  </g>

</svg>
