<svg version="1.1" xmlns="http://www.w3.org/2000/svg" viewBox="0 0 1506.4193725585938 1119.706147967712" width="1506.4193725585938" height="1119.706147967712">
  <!-- svg-source:excalidraw -->
  
  <defs>
    <style class="style-fonts">
      @font-face {
        font-family: "Virgil";
        src: url("https://excalidraw.com/Virgil.woff2");
      }
      @font-face {
        font-family: "Cascadia";
        src: url("https://excalidraw.com/Cascadia.woff2");
      }
      @font-face {
        font-family: "Assistant";
        src: url("https://excalidraw.com/Assistant-Regular.woff2");
      }
    </style>
    
  </defs>
  <rect x="0" y="0" width="1506.4193725585938" height="1119.706147967712" fill="#ffffff"></rect><g stroke-linecap="round" transform="translate(422.62109375 189.828125) rotate(0 30.115234375 17.5)"><path d="M8.75 0 C19.86 3.02, 27.66 -0.26, 51.48 0 C55.1 3.58, 58.94 6.05, 60.23 8.75 C59.28 14.66, 58.03 16.78, 60.23 26.25 C56.83 28.62, 60.8 35.84, 51.48 35 C37.83 36.86, 25.35 34.48, 8.75 35 C6.42 33.38, 3.43 35.66, 0 26.25 C0.56 25.35, -3.11 17.52, 0 8.75 C-0.92 5.01, 2.83 3.15, 8.75 0" stroke="none" stroke-width="0" fill="#b2f2bb"></path><path d="M8.75 0 C22.18 -0.19, 35.11 -0.48, 51.48 0 M8.75 0 C17.67 0.52, 27.78 1.09, 51.48 0 M51.48 0 C57.85 -0.36, 61.85 1.82, 60.23 8.75 M51.48 0 C58.61 -1.57, 58.43 5.05, 60.23 8.75 M60.23 8.75 C58.91 13.54, 59.47 19.66, 60.23 26.25 M60.23 8.75 C59.67 14.57, 60.6 19.09, 60.23 26.25 M60.23 26.25 C58.7 32.58, 56.5 33.97, 51.48 35 M60.23 26.25 C59.16 31.6, 55.95 35.51, 51.48 35 M51.48 35 C37.05 36.21, 25.35 36.27, 8.75 35 M51.48 35 C42.45 35.37, 34.55 34.66, 8.75 35 M8.75 35 C3.2 34, -0.03 33.42, 0 26.25 M8.75 35 C3.98 34.56, 1.99 31.47, 0 26.25 M0 26.25 C0.84 24.17, -1.46 20.34, 0 8.75 M0 26.25 C-0.69 22.1, -0.13 17.94, 0 8.75 M0 8.75 C-1.78 3.77, 3.01 -0.98, 8.75 0 M0 8.75 C-1.29 5.04, 4.76 1.06, 8.75 0" stroke="#2f9e44" stroke-width="2" fill="none"></path></g><g transform="translate(431.1063537597656 194.828125) rotate(0 21.629974365234375 12.5)"><text x="21.629974365234375" y="0" font-family="Virgil, Segoe UI Emoji" font-size="20px" fill="#2f9e44" text-anchor="middle" style="white-space: pre;" direction="ltr" dominant-baseline="text-before-edge">mgfs</text></g><g stroke-linecap="round" transform="translate(10 52.60546875) rotate(0 68.93359375 31.541015625)"><path d="M15.77 0 C40.83 0.02, 63.19 2.31, 122.1 0 C130.26 -3.5, 134.28 6.42, 137.87 15.77 C139.5 27.67, 138.97 36.1, 137.87 47.31 C136.36 56.72, 133.64 64.27, 122.1 63.08 C99.55 60.35, 74.66 59.81, 15.77 63.08 C2.11 64.72, 0.9 54.53, 0 47.31 C1.09 34.04, 2.83 26.8, 0 15.77 C1.43 5.31, 2.3 0.19, 15.77 0" stroke="none" stroke-width="0" fill="#ffc9c9"></path><path d="M15.77 0 C47.56 -2.07, 81.54 -1.26, 122.1 0 M15.77 0 C38.69 0.04, 60.03 0.01, 122.1 0 M122.1 0 C133.09 -0.19, 136.41 4.77, 137.87 15.77 M122.1 0 C131.94 0.67, 138.56 5.5, 137.87 15.77 M137.87 15.77 C138.58 24.15, 138.38 32.77, 137.87 47.31 M137.87 15.77 C137.66 23.91, 138.63 30.4, 137.87 47.31 M137.87 47.31 C138.8 59.53, 134.2 61.52, 122.1 63.08 M137.87 47.31 C137.59 58.25, 132.13 62.45, 122.1 63.08 M122.1 63.08 C87.7 62.93, 51.82 61.36, 15.77 63.08 M122.1 63.08 C95.67 62.63, 70.45 62.54, 15.77 63.08 M15.77 63.08 C3.45 62.44, 0.52 55.93, 0 47.31 M15.77 63.08 C6.25 63.7, 0.63 57.62, 0 47.31 M0 47.31 C1.76 35.51, 2.19 23.81, 0 15.77 M0 47.31 C-0.58 36.46, -0.35 24.2, 0 15.77 M0 15.77 C-0.33 5.93, 6.69 -0.13, 15.77 0 M0 15.77 C1.95 6.1, 4.73 -2.23, 15.77 0" stroke="#e03131" stroke-width="2" fill="none"></path></g><g stroke-linecap="round" transform="translate(26.25 64.666015625) rotate(0 68.93359375 31.541015625)"><path d="M15.77 0 C49.73 -3.09, 79.94 2.73, 122.1 0 C133.65 -1.11, 137.43 6.76, 137.87 15.77 C138.16 24.04, 140.1 34.4, 137.87 47.31 C134.95 58.38, 129.11 62.63, 122.1 63.08 C78.67 63.43, 41.18 65.78, 15.77 63.08 C4.17 66.08, 2.93 55.17, 0 47.31 C0.3 40.21, 0.07 26.59, 0 15.77 C2.11 6.91, 1.91 -2.43, 15.77 0" stroke="none" stroke-width="0" fill="#ffc9c9"></path><path d="M15.77 0 C42.59 1, 68.34 -0.03, 122.1 0 M15.77 0 C53.27 0.86, 89.18 1.78, 122.1 0 M122.1 0 C133.01 -0.15, 136.76 4.16, 137.87 15.77 M122.1 0 C132.96 -0.23, 135.9 5.74, 137.87 15.77 M137.87 15.77 C139.37 24.74, 138.46 35.65, 137.87 47.31 M137.87 15.77 C136.75 25.69, 137.19 36.04, 137.87 47.31 M137.87 47.31 C137.14 56.18, 133.91 64.57, 122.1 63.08 M137.87 47.31 C139.84 56.93, 132.42 61.76, 122.1 63.08 M122.1 63.08 C93.93 62.32, 65.02 65.53, 15.77 63.08 M122.1 63.08 C96.63 63.28, 69.04 63.6, 15.77 63.08 M15.77 63.08 C6.21 61.29, 1.87 57.43, 0 47.31 M15.77 63.08 C4.04 62.02, -0.48 60.04, 0 47.31 M0 47.31 C-0.43 38.01, -1.61 25.22, 0 15.77 M0 47.31 C0.92 35.34, -0.41 24.49, 0 15.77 M0 15.77 C-1.03 3.7, 4.73 -0.72, 15.77 0 M0 15.77 C1.17 5.92, 4.73 0.26, 15.77 0" stroke="#e03131" stroke-width="2" fill="none"></path></g><g stroke-linecap="round" transform="translate(40.29296875 79.189453125) rotate(0 68.93359375 31.541015625)"><path d="M15.77 0 C60.26 -1.26, 101.52 -1.57, 122.1 0 C135.17 1.95, 139.6 4.21, 137.87 15.77 C138.14 23.99, 137.85 34.36, 137.87 47.31 C136.22 57.97, 132.98 65.85, 122.1 63.08 C90.94 67.21, 59.67 61.33, 15.77 63.08 C7.95 63.83, -0.31 56.82, 0 47.31 C-3.53 36.13, -2.15 29.32, 0 15.77 C-2.11 3.69, 6.07 2.8, 15.77 0" stroke="none" stroke-width="0" fill="#ffc9c9"></path><path d="M15.77 0 C40.79 -2.08, 65.31 -1.31, 122.1 0 M15.77 0 C46.88 1.08, 78.73 0.81, 122.1 0 M122.1 0 C131.71 0.5, 139.61 6.29, 137.87 15.77 M122.1 0 C133.51 0.98, 138.12 6.86, 137.87 15.77 M137.87 15.77 C139.44 23.64, 138.73 32.11, 137.87 47.31 M137.87 15.77 C137.68 22.02, 138.96 27.88, 137.87 47.31 M137.87 47.31 C137.37 56.04, 134.59 63.84, 122.1 63.08 M137.87 47.31 C136.68 56.18, 131.97 61.41, 122.1 63.08 M122.1 63.08 C86.92 62.71, 50.46 62.37, 15.77 63.08 M122.1 63.08 C86.7 62.59, 52.52 64.22, 15.77 63.08 M15.77 63.08 C5.61 61.99, 0.63 57.89, 0 47.31 M15.77 63.08 C3.86 61.6, 1.49 57.41, 0 47.31 M0 47.31 C1.55 39.7, 0.27 32.46, 0 15.77 M0 47.31 C0.38 39.9, -0.82 33.03, 0 15.77 M0 15.77 C-0.04 5.68, 3.76 -0.52, 15.77 0 M0 15.77 C-0.34 4.42, 3.1 1.09, 15.77 0" stroke="#e03131" stroke-width="2" fill="none"></path></g><g stroke-linecap="round" transform="translate(56.8359375 94.458984375) rotate(0 68.93359375 31.541015625)"><path d="M15.77 0 C59.16 -3.01, 93.69 -4.04, 122.1 0 C130.59 1.93, 135.28 6.09, 137.87 15.77 C141.51 24.78, 135.93 41.99, 137.87 47.31 C141.4 55.82, 135.85 63.95, 122.1 63.08 C93.84 64.32, 61.9 64.5, 15.77 63.08 C2.68 59.99, 3.32 57.23, 0 47.31 C2.68 34.68, -1.21 28.03, 0 15.77 C-1.62 8.83, 7.94 -2.78, 15.77 0" stroke="none" stroke-width="0" fill="#ffc9c9"></path><path d="M15.77 0 C48.58 0.44, 83.64 -1.4, 122.1 0 M15.77 0 C40.14 0.63, 65 1.04, 122.1 0 M122.1 0 C132.28 0.41, 137.56 3.73, 137.87 15.77 M122.1 0 C131.74 -1.95, 138.48 4.43, 137.87 15.77 M137.87 15.77 C138.24 20.76, 137.28 28.45, 137.87 47.31 M137.87 15.77 C138.55 24.19, 137.64 33.01, 137.87 47.31 M137.87 47.31 C137.24 58.44, 131.82 64.5, 122.1 63.08 M137.87 47.31 C139.11 58.93, 131.94 64.01, 122.1 63.08 M122.1 63.08 C95.88 63.47, 70.87 62.36, 15.77 63.08 M122.1 63.08 C89.81 63.18, 58.27 64.25, 15.77 63.08 M15.77 63.08 C6.65 64.43, -1.87 59.32, 0 47.31 M15.77 63.08 C5.74 62.88, -0.64 58.46, 0 47.31 M0 47.31 C-0.37 36.52, 1.58 26.91, 0 15.77 M0 47.31 C0.49 39.76, 0.09 30.68, 0 15.77 M0 15.77 C0.72 3.37, 4.47 -0.37, 15.77 0 M0 15.77 C-0.07 5.32, 6.87 0.81, 15.77 0" stroke="#e03131" stroke-width="2" fill="none"></path></g><g transform="translate(75.40957641601562 113.5) rotate(0 50.359954833984375 12.5)"><text x="50.359954833984375" y="0" font-family="Virgil, Segoe UI Emoji" font-size="20px" fill="#e03131" text-anchor="middle" style="white-space: pre;" direction="ltr" dominant-baseline="text-before-edge">quantms.io</text></g><g transform="translate(18.02734375 10) rotate(0 67.679931640625 12.5)"><text x="0" y="0" font-family="Virgil, Segoe UI Emoji" font-size="20px" fill="#e03131" text-anchor="start" style="white-space: pre;" direction="ltr" dominant-baseline="text-before-edge">project folder</text></g><g stroke-linecap="round" transform="translate(369 106.611328125) rotate(0 37.95507812500006 24.396484375)"><path d="M12.2 0 C30.51 0, 48.81 0, 63.71 0 C71.84 0, 75.91 4.07, 75.91 12.2 C75.91 21.35, 75.91 30.49, 75.91 36.59 C75.91 44.73, 71.84 48.79, 63.71 48.79 C46.85 48.79, 29.99 48.79, 12.2 48.79 C4.07 48.79, 0 44.73, 0 36.59 C0 28.65, 0 20.71, 0 12.2 C0 4.07, 4.07 0, 12.2 0" stroke="none" stroke-width="0" fill="#a5d8ff"></path><path d="M12.2 0 C23.2 0, 34.21 0, 63.71 0 M12.2 0 C26.47 0, 40.74 0, 63.71 0 M63.71 0 C71.84 0, 75.91 4.07, 75.91 12.2 M63.71 0 C71.84 0, 75.91 4.07, 75.91 12.2 M75.91 12.2 C75.91 20.76, 75.91 29.32, 75.91 36.59 M75.91 12.2 C75.91 19.08, 75.91 25.97, 75.91 36.59 M75.91 36.59 C75.91 44.73, 71.84 48.79, 63.71 48.79 M75.91 36.59 C75.91 44.73, 71.84 48.79, 63.71 48.79 M63.71 48.79 C48.49 48.79, 33.27 48.79, 12.2 48.79 M63.71 48.79 C50.98 48.79, 38.24 48.79, 12.2 48.79 M12.2 48.79 C4.07 48.79, 0 44.73, 0 36.59 M12.2 48.79 C4.07 48.79, 0 44.73, 0 36.59 M0 36.59 C0 27.37, 0 18.15, 0 12.2 M0 36.59 C0 27.54, 0 18.48, 0 12.2 M0 12.2 C0 4.07, 4.07 0, 12.2 0 M0 12.2 C0 4.07, 4.07 0, 12.2 0" stroke="#1971c2" stroke-width="2" fill="none"></path></g><g stroke-linecap="round" transform="translate(397.140625 85.201171875) rotate(0 54.10546875 31.541015625)"><path d="M15.77 0 C42.43 0, 69.08 0, 92.44 0 C102.95 0, 108.21 5.26, 108.21 15.77 C108.21 23.51, 108.21 31.24, 108.21 47.31 C108.21 57.83, 102.95 63.08, 92.44 63.08 C73.5 63.08, 54.56 63.08, 15.77 63.08 C5.26 63.08, 0 57.83, 0 47.31 C0 39.46, 0 31.61, 0 15.77 C0 5.26, 5.26 0, 15.77 0" stroke="none" stroke-width="0" fill="#ffc9c9"></path><path d="M15.77 0 C43.85 0, 71.94 0, 92.44 0 M15.77 0 C45.71 0, 75.65 0, 92.44 0 M92.44 0 C102.95 0, 108.21 5.26, 108.21 15.77 M92.44 0 C102.95 0, 108.21 5.26, 108.21 15.77 M108.21 15.77 C108.21 25.6, 108.21 35.43, 108.21 47.31 M108.21 15.77 C108.21 24.12, 108.21 32.47, 108.21 47.31 M108.21 47.31 C108.21 57.83, 102.95 63.08, 92.44 63.08 M108.21 47.31 C108.21 57.83, 102.95 63.08, 92.44 63.08 M92.44 63.08 C62.07 63.08, 31.71 63.08, 15.77 63.08 M92.44 63.08 C76.13 63.08, 59.82 63.08, 15.77 63.08 M15.77 63.08 C5.26 63.08, 0 57.83, 0 47.31 M15.77 63.08 C5.26 63.08, 0 57.83, 0 47.31 M0 47.31 C0 38.87, 0 30.43, 0 15.77 M0 47.31 C0 39.06, 0 30.81, 0 15.77 M0 15.77 C0 5.26, 5.26 0, 15.77 0 M0 15.77 C0 5.26, 5.26 0, 15.77 0" stroke="#e03131" stroke-width="2" fill="none"></path></g><g transform="translate(415.36612701416016 91.7421875) rotate(0 35.879966735839844 25)"><text x="35.879966735839844" y="0" font-family="Virgil, Segoe UI Emoji" font-size="20px" fill="#e03131" text-anchor="middle" style="white-space: pre;" direction="ltr" dominant-baseline="text-before-edge">mgf </text><text x="35.879966735839844" y="25" font-family="Virgil, Segoe UI Emoji" font-size="20px" fill="#e03131" text-anchor="middle" style="white-space: pre;" direction="ltr" dominant-baseline="text-before-edge">convert</text></g><g stroke-linecap="round" transform="translate(566.16015625 106.3203125) rotate(0 37.955078125 24.396484375)"><path d="M12.2 0 C23.19 -1.4, 37.11 -1.65, 63.71 0 C69.87 -1.65, 73.95 2.69, 75.91 12.2 C76.59 22.15, 77.8 29.22, 75.91 36.59 C73.35 42.51, 70.24 47.77, 63.71 48.79 C45.52 47.48, 29.71 45.89, 12.2 48.79 C4.66 51.74, 2.19 46.54, 0 36.59 C1.91 29.33, 2.36 17.86, 0 12.2 C-1.29 6.13, 3.86 1.53, 12.2 0" stroke="none" stroke-width="0" fill="#a5d8ff"></path><path d="M12.2 0 C30.47 -1.02, 45.97 -0.25, 63.71 0 M12.2 0 C24.92 -0.98, 39.69 -0.46, 63.71 0 M63.71 0 C73.07 0.48, 77.61 4.27, 75.91 12.2 M63.71 0 C70.74 -1.99, 74.2 5.52, 75.91 12.2 M75.91 12.2 C76.82 16.8, 74.31 27.14, 75.91 36.59 M75.91 12.2 C75.76 18.5, 76.87 23.92, 75.91 36.59 M75.91 36.59 C74.93 46.24, 72.32 47.28, 63.71 48.79 M75.91 36.59 C76.55 43.61, 73.11 47.93, 63.71 48.79 M63.71 48.79 C50.14 48.65, 35.4 48.98, 12.2 48.79 M63.71 48.79 C52.72 49.7, 40.94 49.74, 12.2 48.79 M12.2 48.79 C5.89 47.08, 0.29 46.31, 0 36.59 M12.2 48.79 C3.78 47.78, -1.07 43.65, 0 36.59 M0 36.59 C-1.67 27.57, 0.44 23.68, 0 12.2 M0 36.59 C0.3 31.66, 0.13 25.19, 0 12.2 M0 12.2 C-0.21 3.77, 4.15 0.99, 12.2 0 M0 12.2 C-0.96 2.65, 3.34 2.14, 12.2 0" stroke="#1971c2" stroke-width="2" fill="none"></path></g><g stroke-linecap="round" transform="translate(594.30078125 84.91015625) rotate(0 54.10546875 31.541015625)"><path d="M15.77 0 C30.83 -1.66, 45.16 -0.78, 92.44 0 C101 -1.38, 109.07 4.62, 108.21 15.77 C110.3 23.49, 105.77 26.55, 108.21 47.31 C106.61 56.8, 103.25 66.14, 92.44 63.08 C73.25 60.69, 59.12 65.8, 15.77 63.08 C7.44 64.9, 2.77 55.29, 0 47.31 C1.79 36.2, -1.55 27.84, 0 15.77 C-0.21 6.79, 5.39 2.56, 15.77 0" stroke="none" stroke-width="0" fill="#ffc9c9"></path><path d="M15.77 0 C43.56 0.36, 71.23 -0.14, 92.44 0 M15.77 0 C43.73 0.36, 71.91 0.75, 92.44 0 M92.44 0 C104.66 0.21, 107.25 3.53, 108.21 15.77 M92.44 0 C101.24 1.45, 107.49 5.34, 108.21 15.77 M108.21 15.77 C106.74 25.25, 106.97 31.95, 108.21 47.31 M108.21 15.77 C108.98 26, 107.64 36.07, 108.21 47.31 M108.21 47.31 C108.69 56.31, 103.51 62.11, 92.44 63.08 M108.21 47.31 C109.48 56.96, 102.14 62.19, 92.44 63.08 M92.44 63.08 C62.47 62.67, 32.85 63.2, 15.77 63.08 M92.44 63.08 C66.61 64.5, 43.53 62.82, 15.77 63.08 M15.77 63.08 C5.55 64.67, -0.25 56.94, 0 47.31 M15.77 63.08 C4.19 62, -0.28 56.97, 0 47.31 M0 47.31 C0.63 36.02, -0.97 21.11, 0 15.77 M0 47.31 C-0.07 37.21, -0.15 26.58, 0 15.77 M0 15.77 C0.09 6.24, 4.42 -1.23, 15.77 0 M0 15.77 C-0.73 7.4, 4.06 0.49, 15.77 0" stroke="#e03131" stroke-width="2" fill="none"></path></g><g transform="translate(612.5262832641602 91.451171875) rotate(0 35.879966735839844 25)"><text x="35.879966735839844" y="0" font-family="Virgil, Segoe UI Emoji" font-size="20px" fill="#e03131" text-anchor="middle" style="white-space: pre;" direction="ltr" dominant-baseline="text-before-edge">mgf </text><text x="35.879966735839844" y="25" font-family="Virgil, Segoe UI Emoji" font-size="20px" fill="#e03131" text-anchor="middle" style="white-space: pre;" direction="ltr" dominant-baseline="text-before-edge">convert</text></g><g stroke-linecap="round" transform="translate(787.5234375 105.546875) rotate(0 37.955078125 24.396484375)"><path d="M12.2 0 C31.74 -0.69, 48.69 -3.45, 63.71 0 C69.12 2.16, 76.71 2.71, 75.91 12.2 C75.34 18.11, 79.38 25.19, 75.91 36.59 C74.34 41.47, 75.38 46.28, 63.71 48.79 C46.19 50.4, 30.02 50.43, 12.2 48.79 C4.06 49.5, 1.8 44.67, 0 36.59 C-0.74 29.51, 2.71 15.89, 0 12.2 C-1.33 6.84, 7.06 0.05, 12.2 0" stroke="none" stroke-width="0" fill="#a5d8ff"></path><path d="M12.2 0 C26.85 1.84, 37.81 -1.44, 63.71 0 M12.2 0 C23.19 0.62, 34.43 1.06, 63.71 0 M63.71 0 C73.56 -1.7, 76.5 3.14, 75.91 12.2 M63.71 0 C69.93 1.79, 74.48 4.01, 75.91 12.2 M75.91 12.2 C76.14 19.9, 77.06 26.37, 75.91 36.59 M75.91 12.2 C75.46 21.76, 76.27 31.21, 75.91 36.59 M75.91 36.59 C77.76 46.39, 70.25 49.73, 63.71 48.79 M75.91 36.59 C76.46 45.01, 72.55 49.28, 63.71 48.79 M63.71 48.79 C45.72 49.59, 28.08 49.78, 12.2 48.79 M63.71 48.79 C54.01 49.65, 41.42 49.82, 12.2 48.79 M12.2 48.79 C3.8 50.74, 1.2 46.09, 0 36.59 M12.2 48.79 C4.04 49.29, -0.05 45.96, 0 36.59 M0 36.59 C1.08 30.02, 1.88 19.72, 0 12.2 M0 36.59 C0.45 28.24, 0.77 18.53, 0 12.2 M0 12.2 C1.99 2.84, 3.46 -1.68, 12.2 0 M0 12.2 C1.47 3.19, 3.39 1.13, 12.2 0" stroke="#1971c2" stroke-width="2" fill="none"></path></g><g stroke-linecap="round" transform="translate(815.6640625 84.13671875) rotate(0 54.10546875 31.541015625)"><path d="M15.77 0 C40.92 -3.2, 58.74 2.44, 92.44 0 C103.75 -1.36, 105.38 8.7, 108.21 15.77 C111.1 29.74, 106.49 36.06, 108.21 47.31 C111.74 55.31, 105.08 61.84, 92.44 63.08 C74.23 65.58, 49.39 64.47, 15.77 63.08 C7.06 63.03, 3.53 60.9, 0 47.31 C3.14 38.06, -1.27 34.14, 0 15.77 C2.99 5.3, 2.73 -1.26, 15.77 0" stroke="none" stroke-width="0" fill="#ffc9c9"></path><path d="M15.77 0 C40.89 -2.07, 64.05 -2.19, 92.44 0 M15.77 0 C32.05 0.49, 50.29 -1, 92.44 0 M92.44 0 C103.54 -0.93, 106.55 6.81, 108.21 15.77 M92.44 0 C101.53 -0.06, 107.84 6, 108.21 15.77 M108.21 15.77 C109.3 25.55, 110.2 33.86, 108.21 47.31 M108.21 15.77 C108.56 26.97, 109.02 39.87, 108.21 47.31 M108.21 47.31 C106.62 58.76, 103.43 63.33, 92.44 63.08 M108.21 47.31 C108.92 58.32, 104.2 65.2, 92.44 63.08 M92.44 63.08 C74.37 64.75, 52.7 62.77, 15.77 63.08 M92.44 63.08 C61.56 63.95, 32.48 64.36, 15.77 63.08 M15.77 63.08 C6.45 64.45, -0.02 58.26, 0 47.31 M15.77 63.08 C5.21 64.32, 0.47 55.58, 0 47.31 M0 47.31 C1.51 38.07, 1.14 30.45, 0 15.77 M0 47.31 C0.56 35.78, 0.89 24.29, 0 15.77 M0 15.77 C-0.6 3.57, 6.54 -0.76, 15.77 0 M0 15.77 C-0.68 6.39, 5.99 -0.98, 15.77 0" stroke="#e03131" stroke-width="2" fill="none"></path></g><g transform="translate(833.8895645141602 90.677734375) rotate(0 35.879966735839844 25)"><text x="35.879966735839844" y="0" font-family="Virgil, Segoe UI Emoji" font-size="20px" fill="#e03131" text-anchor="middle" style="white-space: pre;" direction="ltr" dominant-baseline="text-before-edge">mgf </text><text x="35.879966735839844" y="25" font-family="Virgil, Segoe UI Emoji" font-size="20px" fill="#e03131" text-anchor="middle" style="white-space: pre;" direction="ltr" dominant-baseline="text-before-edge">convert</text></g><g stroke-linecap="round"><g transform="translate(238.11328125 100.23046875) rotate(0 41.181640625 5.98828125)"><path d="M-1.09 0.32 C12.49 2.09, 68.11 9.07, 82 10.92 M0.53 -0.56 C13.89 1.3, 67.38 9.73, 80.85 11.91" stroke="#1971c2" stroke-width="2" fill="none"></path></g><g transform="translate(238.11328125 100.23046875) rotate(0 41.181640625 5.98828125)"><path d="M56.31 16.67 C65.18 14.66, 71.24 13.4, 80.85 11.91 M56.31 16.67 C63.21 15.67, 68.01 14.02, 80.85 11.91" stroke="#1971c2" stroke-width="2" fill="none"></path></g><g transform="translate(238.11328125 100.23046875) rotate(0 41.181640625 5.98828125)"><path d="M59 -0.22 C66.99 3.49, 72.14 7.98, 80.85 11.91 M59 -0.22 C65.21 3.09, 69.32 5.77, 80.85 11.91" stroke="#1971c2" stroke-width="2" fill="none"></path></g></g><mask></mask><g stroke-linecap="round"><g transform="translate(422.8984375 163.8359375) rotate(0 -0.8523779903725881 51.34375)"><path d="M-0.09 1.07 C-0.47 17.96, -0.87 85.32, -1.14 102.17 M-1.6 0.59 C-2.19 17.56, -1.64 86.33, -1.79 103.44" stroke="#1971c2" stroke-width="2" fill="none"></path></g><g transform="translate(422.8984375 163.8359375) rotate(0 -0.8523779903725881 51.34375)"><path d="M-10.35 79.95 C-5.02 90.18, -4.28 98.48, -1.79 103.44 M-10.35 79.95 C-7.79 85.93, -5.52 91.59, -1.79 103.44" stroke="#1971c2" stroke-width="2" fill="none"></path></g><g transform="translate(422.8984375 163.8359375) rotate(0 -0.8523779903725881 51.34375)"><path d="M6.76 79.95 C5.32 90.17, -0.7 98.46, -1.79 103.44 M6.76 79.95 C4.9 85.98, 2.76 91.63, -1.79 103.44" stroke="#1971c2" stroke-width="2" fill="none"></path></g></g><mask></mask><g stroke-linecap="round"><g transform="translate(637.3203534188999 162.1896872575581) rotate(0 -0.173828125 49.849609375)"><path d="M-0.96 0.61 C-0.93 17.1, -0.92 83.22, -0.68 99.78 M0.74 -0.12 C0.66 16.51, -1.7 84.44, -1.8 101.36" stroke="#1971c2" stroke-width="2" fill="none"></path></g><g transform="translate(637.3203534188999 162.1896872575581) rotate(0 -0.173828125 49.849609375)"><path d="M-9.83 77.69 C-6.8 82.66, -5.82 90.05, -1.8 101.36 M-9.83 77.69 C-6.48 85.84, -5.19 93.84, -1.8 101.36" stroke="#1971c2" stroke-width="2" fill="none"></path></g><g transform="translate(637.3203534188999 162.1896872575581) rotate(0 -0.173828125 49.849609375)"><path d="M7.27 78.06 C6.36 82.81, 3.39 90.11, -1.8 101.36 M7.27 78.06 C5.1 86.24, 0.87 94.13, -1.8 101.36" stroke="#1971c2" stroke-width="2" fill="none"></path></g></g><mask></mask><g stroke-linecap="round"><g transform="translate(847.9726971688999 166.4709372575581) rotate(0 -0.72265625 47.66796875)"><path d="M-0.1 0.62 C-0.14 16.17, -0.72 78.78, -1.02 94.45 M-1.6 -0.1 C-1.7 16.09, -1.52 79.57, -1.74 95.53" stroke="#1971c2" stroke-width="2" fill="none"></path></g><g transform="translate(847.9726971688999 166.4709372575581) rotate(0 -0.72265625 47.66796875)"><path d="M-10.19 72 C-6.94 78.28, -7.45 82.36, -1.74 95.53 M-10.19 72 C-9.13 78.52, -5.39 83.11, -1.74 95.53" stroke="#1971c2" stroke-width="2" fill="none"></path></g><g transform="translate(847.9726971688999 166.4709372575581) rotate(0 -0.72265625 47.66796875)"><path d="M6.91 72.07 C6.12 78.32, 1.57 82.38, -1.74 95.53 M6.91 72.07 C3.77 78.67, 3.31 83.24, -1.74 95.53" stroke="#1971c2" stroke-width="2" fill="none"></path></g></g><mask></mask><g stroke-linecap="round"><g transform="translate(634.5760962325933 341.4120920548309) rotate(0 0.35062689112101 27.987421753779017)"><path d="M0.6 1.08 C0.55 10.49, -0.11 46.88, -0.13 56.06 M-0.55 0.61 C-0.23 10.26, 2.12 48.15, 2.14 57.65" stroke="#1971c2" stroke-width="2" fill="none"></path></g><g transform="translate(634.5760962325933 341.4120920548309) rotate(0 0.35062689112101 27.987421753779017)"><path d="M-7.25 34.48 C-2.58 40.29, -1.3 48.51, 2.14 57.65 M-7.25 34.48 C-3.79 41.91, -2.45 48.11, 2.14 57.65" stroke="#1971c2" stroke-width="2" fill="none"></path></g><g transform="translate(634.5760962325933 341.4120920548309) rotate(0 0.35062689112101 27.987421753779017)"><path d="M9.84 33.86 C9.16 39.95, 5.09 48.36, 2.14 57.65 M9.84 33.86 C7.89 41.52, 3.83 47.91, 2.14 57.65" stroke="#1971c2" stroke-width="2" fill="none"></path></g></g><mask></mask><g stroke-linecap="round"><g transform="translate(850.8104712325933 342.20506080483096) rotate(0 0.35062689112101 27.987421753779017)"><path d="M1.1 -0.43 C1.12 9, 0.91 46.49, 0.82 55.83 M0.22 -1.71 C0.03 7.99, 0.01 47.55, -0.07 57.28" stroke="#1971c2" stroke-width="2" fill="none"></path></g><g transform="translate(850.8104712325933 342.20506080483096) rotate(0 0.35062689112101 27.987421753779017)"><path d="M-8.53 33.76 C-6.37 42.32, -2.85 50.36, -0.07 57.28 M-8.53 33.76 C-6.53 40.02, -4 45.3, -0.07 57.28" stroke="#1971c2" stroke-width="2" fill="none"></path></g><g transform="translate(850.8104712325933 342.20506080483096) rotate(0 0.35062689112101 27.987421753779017)"><path d="M8.58 33.83 C4.59 42.52, 1.96 50.53, -0.07 57.28 M8.58 33.83 C6 40.19, 3.95 45.45, -0.07 57.28" stroke="#1971c2" stroke-width="2" fill="none"></path></g></g><mask></mask><g stroke-linecap="round" transform="translate(366.201171875 692.490234375) rotate(0 281.1015625 20.021484375)"><path d="M10.01 0 C216.41 2.39, 420.69 3.7, 552.19 0 C557.45 1.21, 563.32 2.08, 562.2 10.01 C565.45 13.45, 562.55 23.48, 562.2 30.03 C560.31 39.3, 559.32 36.62, 552.19 40.04 C424.91 40.69, 299.09 41.46, 10.01 40.04 C0.93 41.92, -1.98 36.6, 0 30.03 C1.09 20.23, 2.31 14.23, 0 10.01 C2.75 1.59, 2.97 -2.61, 10.01 0" stroke="none" stroke-width="0" fill="#b2f2bb"></path><path d="M10.01 0 C178.62 1.26, 347.02 1.08, 552.19 0 M10.01 0 C213.06 0.47, 415.47 0.41, 552.19 0 M552.19 0 C557.85 1.65, 560.29 3.99, 562.2 10.01 M552.19 0 C560.99 0.35, 562.38 1.18, 562.2 10.01 M562.2 10.01 C560.94 15.4, 562.68 23.22, 562.2 30.03 M562.2 10.01 C562.28 16.15, 562.6 22.95, 562.2 30.03 M562.2 30.03 C560.43 37.71, 558.63 38.62, 552.19 40.04 M562.2 30.03 C560.82 35.24, 558.14 38.01, 552.19 40.04 M552.19 40.04 C407.37 39.1, 261.13 39.1, 10.01 40.04 M552.19 40.04 C429.47 38.53, 307.06 38.71, 10.01 40.04 M10.01 40.04 C3.08 39.49, -1.16 35.97, 0 30.03 M10.01 40.04 C3.99 39.76, 1.92 36.03, 0 30.03 M0 30.03 C1.66 27.6, 0.39 21.75, 0 10.01 M0 30.03 C-0.11 22.91, -0.15 17.32, 0 10.01 M0 10.01 C0.96 4.44, 2.26 0.81, 10.01 0 M0 10.01 C-0.98 3.65, 2.9 0.15, 10.01 0" stroke="#2f9e44" stroke-width="2" fill="none"></path></g><g transform="translate(550.5228271484375 700.01171875) rotate(0 96.7799072265625 12.5)"><text x="96.7799072265625" y="0" font-family="Virgil, Segoe UI Emoji" font-size="20px" fill="#2f9e44" text-anchor="middle" style="white-space: pre;" direction="ltr" dominant-baseline="text-before-edge">Spectra partitioning</text></g><g stroke-linecap="round"><g transform="translate(418.7683267329271 341.68943580483096) rotate(0 0.06649362878488319 31.659296753779017)"><path d="M0.71 0.05 C0.69 10.59, 0.69 53.54, 0.72 64.07 M-0.37 -0.97 C-0.58 9.16, -0.07 51.43, 0.09 62.34" stroke="#1971c2" stroke-width="2" fill="none"></path></g><g transform="translate(418.7683267329271 341.68943580483096) rotate(0 0.06649362878488319 31.659296753779017)"><path d="M-8.76 38.96 C-5.21 48.66, -0.72 57.76, 0.09 62.34 M-8.76 38.96 C-5.81 46.39, -3.47 52.22, 0.09 62.34" stroke="#1971c2" stroke-width="2" fill="none"></path></g><g transform="translate(418.7683267329271 341.68943580483096) rotate(0 0.06649362878488319 31.659296753779017)"><path d="M8.34 38.74 C5.48 48.62, 3.56 57.81, 0.09 62.34 M8.34 38.74 C6.28 46.39, 3.61 52.29, 0.09 62.34" stroke="#1971c2" stroke-width="2" fill="none"></path></g></g><mask></mask><g stroke-linecap="round" transform="translate(355.375 409.494140625) rotate(0 74.56640625 31.541015625)"><path d="M15.77 0 C45.16 -3.88, 70.53 1.14, 133.36 0 C144.49 -2.87, 146.03 3.12, 149.13 15.77 C150.14 29.33, 150.98 40.22, 149.13 47.31 C147.07 59.68, 143.62 65.3, 133.36 63.08 C103.33 60.19, 75.19 63.37, 15.77 63.08 C3.84 66.13, -3.56 55.38, 0 47.31 C1.15 39.21, -1.92 25.72, 0 15.77 C1.12 3.87, 8.75 -3.53, 15.77 0" stroke="none" stroke-width="0" fill="#ffc9c9"></path><path d="M15.77 0 C54.51 1.57, 98.41 0.08, 133.36 0 M15.77 0 C56.13 -1.03, 95.76 -0.8, 133.36 0 M133.36 0 C142.72 1.13, 150.61 3.71, 149.13 15.77 M133.36 0 C143.54 0.17, 148.51 3.54, 149.13 15.77 M149.13 15.77 C148.78 24.07, 149.61 35.55, 149.13 47.31 M149.13 15.77 C149.43 24.39, 148.87 34.31, 149.13 47.31 M149.13 47.31 C148.99 59.37, 143.14 64.16, 133.36 63.08 M149.13 47.31 C150.23 60.11, 141.7 63.94, 133.36 63.08 M133.36 63.08 C92.95 63.27, 47.71 62.49, 15.77 63.08 M133.36 63.08 C97.49 63.34, 61.16 61.71, 15.77 63.08 M15.77 63.08 C4.96 62.81, 1.13 57.15, 0 47.31 M15.77 63.08 C5.47 62.08, -0.13 55.74, 0 47.31 M0 47.31 C-1.42 41.7, -1.55 35.61, 0 15.77 M0 47.31 C0.06 37.61, -0.71 26.26, 0 15.77 M0 15.77 C-0.3 6.61, 3.94 -1.25, 15.77 0 M0 15.77 C1.74 7.3, 7.07 0.58, 15.77 0" stroke="#e03131" stroke-width="2" fill="none"></path></g><g transform="translate(383.18145751953125 416.03515625) rotate(0 46.75994873046875 25)"><text x="46.75994873046875" y="0" font-family="Virgil, Segoe UI Emoji" font-size="20px" fill="#e03131" text-anchor="middle" style="white-space: pre;" direction="ltr" dominant-baseline="text-before-edge">Project</text><text x="46.75994873046875" y="25" font-family="Virgil, Segoe UI Emoji" font-size="20px" fill="#e03131" text-anchor="middle" style="white-space: pre;" direction="ltr" dominant-baseline="text-before-edge">Clustered</text></g><g stroke-linecap="round" transform="translate(356.9140625 272.45703125) rotate(0 58.158203125 31.541015625)"><path d="M15.77 0 C45.65 -1.99, 81.77 -0.52, 100.55 0 C111.26 -2, 119.26 1.85, 116.32 15.77 C114.95 21.91, 117.52 34.48, 116.32 47.31 C117.85 57.76, 109.14 62.29, 100.55 63.08 C69.5 59.82, 32.25 59.45, 15.77 63.08 C6.05 66.55, -0.98 57.39, 0 47.31 C-3.21 39.22, -1.71 27.14, 0 15.77 C-1.63 3.56, 5.93 -1.63, 15.77 0" stroke="none" stroke-width="0" fill="#ffc9c9"></path><path d="M15.77 0 C36.16 -0.12, 52.01 -0.24, 100.55 0 M15.77 0 C48.83 0.94, 81.88 0.3, 100.55 0 M100.55 0 C112.96 0.49, 117.62 5.13, 116.32 15.77 M100.55 0 C112.62 -2.19, 116.62 2.98, 116.32 15.77 M116.32 15.77 C117.45 25.1, 116.39 36.73, 116.32 47.31 M116.32 15.77 C116.98 21.94, 116.18 29.92, 116.32 47.31 M116.32 47.31 C116.24 59.38, 110.53 62.44, 100.55 63.08 M116.32 47.31 C115.11 59.41, 112.14 62.47, 100.55 63.08 M100.55 63.08 C72.93 63.72, 42.38 61.42, 15.77 63.08 M100.55 63.08 C79.62 63.71, 58.99 63.69, 15.77 63.08 M15.77 63.08 C5.27 61.34, 1.33 58.12, 0 47.31 M15.77 63.08 C3.97 62.33, -2.05 56.36, 0 47.31 M0 47.31 C1.19 40, 0.67 29.21, 0 15.77 M0 47.31 C-0.44 40.29, -0.4 31.69, 0 15.77 M0 15.77 C0.13 6.35, 4.49 -1.08, 15.77 0 M0 15.77 C-2.15 3.85, 7.41 -0.13, 15.77 0" stroke="#e03131" stroke-width="2" fill="none"></path></g><g transform="translate(379.47230529785156 278.998046875) rotate(0 35.59996032714844 25)"><text x="35.59996032714844" y="0" font-family="Virgil, Segoe UI Emoji" font-size="20px" fill="#e03131" text-anchor="middle" style="white-space: pre;" direction="ltr" dominant-baseline="text-before-edge">MaRA</text><text x="35.59996032714844" y="25" font-family="Virgil, Segoe UI Emoji" font-size="20px" fill="#e03131" text-anchor="middle" style="white-space: pre;" direction="ltr" dominant-baseline="text-before-edge">Cluster</text></g><g stroke-linecap="round" transform="translate(638.154296875 192.21484375) rotate(0 30.115234375 17.5)"><path d="M8.75 0 C18.73 2.97, 30.67 1.29, 51.48 0 C58.41 -0.84, 58.24 3.06, 60.23 8.75 C62.76 9.85, 59.25 13.86, 60.23 26.25 C57.17 29.61, 54.17 33.33, 51.48 35 C35.46 34.54, 17.97 33.6, 8.75 35 C2.46 35.56, 2.03 31.47, 0 26.25 C-0.34 19.57, -0.37 17.09, 0 8.75 C3.51 4.76, 0.95 0.04, 8.75 0" stroke="none" stroke-width="0" fill="#b2f2bb"></path><path d="M8.75 0 C23.42 -1.53, 36.77 0.31, 51.48 0 M8.75 0 C21.57 0.01, 34.6 0.48, 51.48 0 M51.48 0 C58.94 0.36, 58.53 3.28, 60.23 8.75 M51.48 0 C57.82 1.12, 58.48 0.7, 60.23 8.75 M60.23 8.75 C60.06 12.15, 60.44 18.98, 60.23 26.25 M60.23 8.75 C60.47 15.22, 60.99 20.97, 60.23 26.25 M60.23 26.25 C61.52 31.59, 58.02 34.24, 51.48 35 M60.23 26.25 C59.25 31.11, 59.41 36.7, 51.48 35 M51.48 35 C34.04 34.19, 17.51 34.52, 8.75 35 M51.48 35 C39.12 34.14, 27.13 34.68, 8.75 35 M8.75 35 C2.53 36.01, 1.99 30.18, 0 26.25 M8.75 35 C2.49 34.21, -1.21 34.11, 0 26.25 M0 26.25 C0.37 20.24, 1.24 18.09, 0 8.75 M0 26.25 C-0.2 20.39, -0.68 13.66, 0 8.75 M0 8.75 C0.25 2.14, 2.19 0.15, 8.75 0 M0 8.75 C1.48 4.88, 1.03 -1.81, 8.75 0" stroke="#2f9e44" stroke-width="2" fill="none"></path></g><g transform="translate(646.6395568847656 197.21484375) rotate(0 21.629974365234375 12.5)"><text x="21.629974365234375" y="0" font-family="Virgil, Segoe UI Emoji" font-size="20px" fill="#2f9e44" text-anchor="middle" style="white-space: pre;" direction="ltr" dominant-baseline="text-before-edge">mgfs</text></g><g stroke-linecap="round" transform="translate(573.736328125 270.455078125) rotate(0 58.158203125 31.541015625)"><path d="M15.77 0 C49.54 -0.63, 74.17 2.77, 100.55 0 C112.01 -1.26, 117.23 6.44, 116.32 15.77 C119.61 24.59, 114.44 34.67, 116.32 47.31 C113.91 56.46, 111 64, 100.55 63.08 C76.81 65.43, 53.68 64.79, 15.77 63.08 C6.44 64.32, 2.07 56.85, 0 47.31 C0.69 40.09, 0.04 36.65, 0 15.77 C1.66 4.36, 4.47 -2.46, 15.77 0" stroke="none" stroke-width="0" fill="#ffc9c9"></path><path d="M15.77 0 C42.22 0.68, 70.65 -1.24, 100.55 0 M15.77 0 C35.05 -0.46, 53.27 -0.75, 100.55 0 M100.55 0 C112.94 1, 118.1 6.23, 116.32 15.77 M100.55 0 C111.53 -1.26, 117.73 4.2, 116.32 15.77 M116.32 15.77 C117.55 23.31, 114.17 30.13, 116.32 47.31 M116.32 15.77 C115.76 24.47, 116.81 33.98, 116.32 47.31 M116.32 47.31 C117.78 56.24, 111.01 61.53, 100.55 63.08 M116.32 47.31 C116.52 58.16, 112.82 65.1, 100.55 63.08 M100.55 63.08 C80.99 64.77, 64.24 62.26, 15.77 63.08 M100.55 63.08 C67.29 64.16, 35.66 62.59, 15.77 63.08 M15.77 63.08 C3.56 63.73, -1.13 59.22, 0 47.31 M15.77 63.08 C5 63.91, -1.33 58.29, 0 47.31 M0 47.31 C1.23 39.31, -1.16 31.48, 0 15.77 M0 47.31 C0.5 38.3, -1.1 30.02, 0 15.77 M0 15.77 C0.94 5.09, 6.32 0.15, 15.77 0 M0 15.77 C2.11 7.06, 5.37 -2, 15.77 0" stroke="#e03131" stroke-width="2" fill="none"></path></g><g transform="translate(596.2945709228516 276.99609375) rotate(0 35.59996032714844 25)"><text x="35.59996032714844" y="0" font-family="Virgil, Segoe UI Emoji" font-size="20px" fill="#e03131" text-anchor="middle" style="white-space: pre;" direction="ltr" dominant-baseline="text-before-edge">MaRA</text><text x="35.59996032714844" y="25" font-family="Virgil, Segoe UI Emoji" font-size="20px" fill="#e03131" text-anchor="middle" style="white-space: pre;" direction="ltr" dominant-baseline="text-before-edge">Cluster</text></g><g stroke-linecap="round" transform="translate(788.474609375 269.916015625) rotate(0 58.158203125 31.541015625)"><path d="M15.77 0 C36.73 -4.54, 54.19 -0.87, 100.55 0 C113.62 0.75, 116.8 7.68, 116.32 15.77 C115.25 24.51, 115.91 39.01, 116.32 47.31 C118.51 56.06, 108.44 62.03, 100.55 63.08 C71.29 61.35, 35.68 63.03, 15.77 63.08 C2.06 63.71, 0.77 55.05, 0 47.31 C1.81 37.77, -1.96 34.48, 0 15.77 C-1.63 7.41, 1.92 3.56, 15.77 0" stroke="none" stroke-width="0" fill="#ffc9c9"></path><path d="M15.77 0 C33.39 -1.1, 52.76 -0.98, 100.55 0 M15.77 0 C47.18 -0.33, 78.05 -0.73, 100.55 0 M100.55 0 C111.27 -1.37, 118.2 3.5, 116.32 15.77 M100.55 0 C109.2 -2.29, 115.89 6.1, 116.32 15.77 M116.32 15.77 C114.8 26.95, 117.23 39.04, 116.32 47.31 M116.32 15.77 C117.01 26.47, 117.09 37.16, 116.32 47.31 M116.32 47.31 C114.35 58.86, 109.25 64.54, 100.55 63.08 M116.32 47.31 C118.11 58.87, 109.42 61.68, 100.55 63.08 M100.55 63.08 C69.95 61.66, 43.48 63.07, 15.77 63.08 M100.55 63.08 C80.47 63.51, 59.48 63.69, 15.77 63.08 M15.77 63.08 C4.8 61.66, 1.66 59.34, 0 47.31 M15.77 63.08 C6.76 62.49, -0.14 59, 0 47.31 M0 47.31 C-0.14 37.07, -1.11 23.64, 0 15.77 M0 47.31 C0.63 37.45, -0.04 25.44, 0 15.77 M0 15.77 C-0.89 5.21, 5.17 0.25, 15.77 0 M0 15.77 C-0.8 6.28, 3 -2.21, 15.77 0" stroke="#e03131" stroke-width="2" fill="none"></path></g><g transform="translate(811.0328521728516 276.45703125) rotate(0 35.59996032714844 25)"><text x="35.59996032714844" y="0" font-family="Virgil, Segoe UI Emoji" font-size="20px" fill="#e03131" text-anchor="middle" style="white-space: pre;" direction="ltr" dominant-baseline="text-before-edge">MaRA</text><text x="35.59996032714844" y="25" font-family="Virgil, Segoe UI Emoji" font-size="20px" fill="#e03131" text-anchor="middle" style="white-space: pre;" direction="ltr" dominant-baseline="text-before-edge">Cluster</text></g><g stroke-linecap="round" transform="translate(847.689453125 185.953125) rotate(0 30.115234375 17.5)"><path d="M8.75 0 C20.73 -3.23, 31.63 -4.16, 51.48 0 C56.26 0.27, 57.73 -0.27, 60.23 8.75 C61.99 14.93, 63.02 16.03, 60.23 26.25 C60.11 34.63, 56.27 38.56, 51.48 35 C38.25 31.94, 30.65 36.55, 8.75 35 C5.78 36.46, -1.51 30.55, 0 26.25 C-1.18 18.16, 3.2 11.66, 0 8.75 C-0.7 1.26, 5.02 0.77, 8.75 0" stroke="none" stroke-width="0" fill="#b2f2bb"></path><path d="M8.75 0 C19.27 1.67, 32.58 0.23, 51.48 0 M8.75 0 C20.37 -0.37, 32.97 -0.22, 51.48 0 M51.48 0 C59.27 1.37, 61.71 2.69, 60.23 8.75 M51.48 0 C59.1 2.23, 58.73 2.65, 60.23 8.75 M60.23 8.75 C61.17 13, 59.08 16.99, 60.23 26.25 M60.23 8.75 C60.97 13.88, 59.69 19.67, 60.23 26.25 M60.23 26.25 C59.92 31.27, 56.4 36.06, 51.48 35 M60.23 26.25 C62.2 31.15, 56.51 33.14, 51.48 35 M51.48 35 C39.91 35.61, 33.06 35.2, 8.75 35 M51.48 35 C41.73 35.62, 30.44 34.76, 8.75 35 M8.75 35 C4.86 36.84, -0.27 33.94, 0 26.25 M8.75 35 C3.96 36.36, 0.97 32.15, 0 26.25 M0 26.25 C-0.4 18.18, 1.42 13.34, 0 8.75 M0 26.25 C-0.35 22.06, -0.26 18.91, 0 8.75 M0 8.75 C-1.79 4.53, 2.22 1.38, 8.75 0 M0 8.75 C0.27 3.2, 1.18 -1.77, 8.75 0" stroke="#2f9e44" stroke-width="2" fill="none"></path></g><g transform="translate(856.1747131347656 190.953125) rotate(0 21.629974365234375 12.5)"><text x="21.629974365234375" y="0" font-family="Virgil, Segoe UI Emoji" font-size="20px" fill="#2f9e44" text-anchor="middle" style="white-space: pre;" direction="ltr" dominant-baseline="text-before-edge">mgfs</text></g><g stroke-linecap="round" transform="translate(429.673828125 349.78515625) rotate(0 30.115234375 17.5)"><path d="M8.75 0 C17.2 0.36, 30.4 2.47, 51.48 0 C55.2 -2.73, 62.03 4.7, 60.23 8.75 C62.35 15.06, 58.65 20.95, 60.23 26.25 C62.84 30.32, 57.81 33.02, 51.48 35 C37.42 37.36, 26.92 36.05, 8.75 35 C4.15 36.83, -3.36 29.44, 0 26.25 C-0.36 25.26, -1.06 20.09, 0 8.75 C0.28 0.06, -0.32 2.83, 8.75 0" stroke="none" stroke-width="0" fill="#b2f2bb"></path><path d="M8.75 0 C23.32 -0.43, 40.65 1.23, 51.48 0 M8.75 0 C20.69 1.14, 34.34 -0.63, 51.48 0 M51.48 0 C57.32 1.21, 61.55 1.91, 60.23 8.75 M51.48 0 C57.68 -2.28, 61.47 4.45, 60.23 8.75 M60.23 8.75 C61.38 16.44, 60.25 20.96, 60.23 26.25 M60.23 8.75 C59.94 14.37, 60.69 20.66, 60.23 26.25 M60.23 26.25 C58.28 31.02, 58.31 33.89, 51.48 35 M60.23 26.25 C61.79 34.02, 58.68 34.75, 51.48 35 M51.48 35 C37.03 35.55, 26.13 35.18, 8.75 35 M51.48 35 C41.52 35.15, 31.36 33.92, 8.75 35 M8.75 35 C2.19 35.53, -0.24 31.8, 0 26.25 M8.75 35 C3.28 33.74, -0.5 30.22, 0 26.25 M0 26.25 C-1.11 21.17, -0.69 17.73, 0 8.75 M0 26.25 C-0.78 20.17, 0.38 13.65, 0 8.75 M0 8.75 C-1.8 1.99, 2.14 1.66, 8.75 0 M0 8.75 C0.06 4.94, 3.45 -0.06, 8.75 0" stroke="#2f9e44" stroke-width="2" fill="none"></path></g><g transform="translate(440.7390823364258 354.78515625) rotate(0 19.04998016357422 12.5)"><text x="19.04998016357422" y="0" font-family="Virgil, Segoe UI Emoji" font-size="20px" fill="#2f9e44" text-anchor="middle" style="white-space: pre;" direction="ltr" dominant-baseline="text-before-edge">.tsv</text></g><g stroke-linecap="round" transform="translate(644.220703125 346.8984375) rotate(0 30.115234375 17.5)"><path d="M8.75 0 C18.59 -1, 27.75 2.9, 51.48 0 C60.87 -3.47, 61.78 1.75, 60.23 8.75 C58.57 16.44, 60.91 17.21, 60.23 26.25 C59.1 34.85, 60.8 35.34, 51.48 35 C36.21 32.87, 23.66 36.33, 8.75 35 C3.9 34.59, 1.63 31.18, 0 26.25 C2.13 21.08, -0.71 18.53, 0 8.75 C0.67 3.9, 0.42 3.21, 8.75 0" stroke="none" stroke-width="0" fill="#b2f2bb"></path><path d="M8.75 0 C17.93 -1.94, 27.16 1.21, 51.48 0 M8.75 0 C25.04 -1.05, 41.69 0.73, 51.48 0 M51.48 0 C57.58 -1.05, 61.6 1.72, 60.23 8.75 M51.48 0 C58.65 1.98, 59.16 0.73, 60.23 8.75 M60.23 8.75 C59.98 12.13, 59.87 18.98, 60.23 26.25 M60.23 8.75 C60.46 12.47, 60.16 16.41, 60.23 26.25 M60.23 26.25 C60.28 31.09, 57.59 33.73, 51.48 35 M60.23 26.25 C60.81 30.37, 56.3 37.17, 51.48 35 M51.48 35 C37.4 34.09, 21.55 35.89, 8.75 35 M51.48 35 C36.57 33.76, 20.33 35.53, 8.75 35 M8.75 35 C2.53 35.68, 0.68 30.2, 0 26.25 M8.75 35 C4.99 37.19, 0.86 31.26, 0 26.25 M0 26.25 C0.99 18.51, 0.99 14.2, 0 8.75 M0 26.25 C0.48 20.07, 0.81 13.67, 0 8.75 M0 8.75 C0.52 1.24, 3.23 0.49, 8.75 0 M0 8.75 C2.01 1.54, 3.41 0.84, 8.75 0" stroke="#2f9e44" stroke-width="2" fill="none"></path></g><g transform="translate(655.2859573364258 351.8984375) rotate(0 19.04998016357422 12.5)"><text x="19.04998016357422" y="0" font-family="Virgil, Segoe UI Emoji" font-size="20px" fill="#2f9e44" text-anchor="middle" style="white-space: pre;" direction="ltr" dominant-baseline="text-before-edge">.tsv</text></g><g stroke-linecap="round" transform="translate(864.919921875 361.75) rotate(0 30.115234375 17.5)"><path d="M8.75 0 C25.72 3.28, 37.26 2.94, 51.48 0 C54.76 -3.34, 58.71 2.75, 60.23 8.75 C61.68 14.08, 57.56 20.47, 60.23 26.25 C62.55 33.82, 57.16 33.23, 51.48 35 C46.25 33.61, 36.1 36.63, 8.75 35 C3.28 35.16, -3.13 33.07, 0 26.25 C1.38 21.02, 1.88 17.09, 0 8.75 C-0.66 4.8, 5.94 -3.28, 8.75 0" stroke="none" stroke-width="0" fill="#b2f2bb"></path><path d="M8.75 0 C26.12 -1.63, 40.98 0.14, 51.48 0 M8.75 0 C25.65 -0.41, 42.73 0.98, 51.48 0 M51.48 0 C57.42 0.24, 60.54 2.56, 60.23 8.75 M51.48 0 C55.71 -0.83, 61.5 2.84, 60.23 8.75 M60.23 8.75 C59.13 13.97, 61.65 21.65, 60.23 26.25 M60.23 8.75 C59.86 14.9, 60.95 20.73, 60.23 26.25 M60.23 26.25 C60.52 32.59, 57.01 36.38, 51.48 35 M60.23 26.25 C59.59 33.82, 55.91 37.25, 51.48 35 M51.48 35 C40.96 33.14, 25.82 36.3, 8.75 35 M51.48 35 C43.06 34.72, 34.35 34.94, 8.75 35 M8.75 35 C2.46 35.95, 1.75 30.09, 0 26.25 M8.75 35 C2.73 35.58, 0.87 32.33, 0 26.25 M0 26.25 C0.83 19.67, -0.36 16.55, 0 8.75 M0 26.25 C0.15 20.74, -0.68 14.93, 0 8.75 M0 8.75 C-0.55 2.97, 4.16 -1.04, 8.75 0 M0 8.75 C2.21 4.62, 3.76 -1.66, 8.75 0" stroke="#2f9e44" stroke-width="2" fill="none"></path></g><g transform="translate(875.9851760864258 366.75) rotate(0 19.04998016357422 12.5)"><text x="19.04998016357422" y="0" font-family="Virgil, Segoe UI Emoji" font-size="20px" fill="#2f9e44" text-anchor="middle" style="white-space: pre;" direction="ltr" dominant-baseline="text-before-edge">.tsv</text></g><g stroke-linecap="round" transform="translate(559.65234375 407.275390625) rotate(0 74.56640625 31.541015625)"><path d="M15.77 0 C48.75 -4.86, 80.3 -3.24, 133.36 0 C146.92 -0.8, 147.79 5.11, 149.13 15.77 C149.94 22.65, 150.22 34.05, 149.13 47.31 C146.4 57.04, 143.69 62.84, 133.36 63.08 C94.7 58.99, 56.37 61.2, 15.77 63.08 C5.92 65.84, -2.95 59.33, 0 47.31 C2.61 34.33, 3.72 24.08, 0 15.77 C1.92 2.15, 2.25 0.19, 15.77 0" stroke="none" stroke-width="0" fill="#ffc9c9"></path><path d="M15.77 0 C61.66 1.78, 104.98 -1.15, 133.36 0 M15.77 0 C56.82 -1.54, 98.63 -1.76, 133.36 0 M133.36 0 C141.93 1.3, 148.93 3.76, 149.13 15.77 M133.36 0 C143.41 0.58, 148.7 5.31, 149.13 15.77 M149.13 15.77 C148.18 25.32, 148.2 32.52, 149.13 47.31 M149.13 15.77 C150.13 21.45, 148.39 29.47, 149.13 47.31 M149.13 47.31 C147.67 57.93, 142.75 62.66, 133.36 63.08 M149.13 47.31 C148.16 58.54, 145.92 62.96, 133.36 63.08 M133.36 63.08 C102.17 61.45, 70.79 62.18, 15.77 63.08 M133.36 63.08 C96.4 63.33, 58.16 62.38, 15.77 63.08 M15.77 63.08 C4.67 64.13, -0.76 59.38, 0 47.31 M15.77 63.08 C6.88 63.06, 1.1 57.14, 0 47.31 M0 47.31 C0.57 38.68, -1.42 32.21, 0 15.77 M0 47.31 C-0.69 41.32, -0.49 34.59, 0 15.77 M0 15.77 C1.63 5.71, 6.54 -1.3, 15.77 0 M0 15.77 C1.1 6.34, 3.85 1.44, 15.77 0" stroke="#e03131" stroke-width="2" fill="none"></path></g><g transform="translate(587.4588012695312 413.81640625) rotate(0 46.75994873046875 25)"><text x="46.75994873046875" y="0" font-family="Virgil, Segoe UI Emoji" font-size="20px" fill="#e03131" text-anchor="middle" style="white-space: pre;" direction="ltr" dominant-baseline="text-before-edge">Project</text><text x="46.75994873046875" y="25" font-family="Virgil, Segoe UI Emoji" font-size="20px" fill="#e03131" text-anchor="middle" style="white-space: pre;" direction="ltr" dominant-baseline="text-before-edge">Clustered</text></g><g stroke-linecap="round" transform="translate(774.82421875 405.056640625) rotate(0 74.56640625 31.541015625)"><path d="M15.77 0 C45.29 3.07, 75.68 -0.33, 133.36 0 C146.69 -1.81, 147.65 4.6, 149.13 15.77 C151.1 23.46, 150.39 31.41, 149.13 47.31 C151.14 54.83, 143.43 60.6, 133.36 63.08 C89.58 63.81, 43.42 61.14, 15.77 63.08 C6.29 65.38, 1.33 56.32, 0 47.31 C-0.72 36.56, 2.08 24.34, 0 15.77 C2.7 8.27, 3.16 -2.05, 15.77 0" stroke="none" stroke-width="0" fill="#ffc9c9"></path><path d="M15.77 0 C56.01 0.68, 95.93 0.77, 133.36 0 M15.77 0 C58.32 0.12, 99.74 -0.09, 133.36 0 M133.36 0 C143.54 -1.2, 147.99 4.01, 149.13 15.77 M133.36 0 C143.45 1.8, 147.09 6.65, 149.13 15.77 M149.13 15.77 C147.39 27.11, 149.28 40.9, 149.13 47.31 M149.13 15.77 C149.42 24.86, 148.77 35.13, 149.13 47.31 M149.13 47.31 C150.79 58.77, 143.24 63.22, 133.36 63.08 M149.13 47.31 C148.93 58.75, 142.48 61.34, 133.36 63.08 M133.36 63.08 C109.79 66.11, 86.15 62.36, 15.77 63.08 M133.36 63.08 C99.54 63.79, 65.97 63.11, 15.77 63.08 M15.77 63.08 C6.96 61.73, -0.98 56.54, 0 47.31 M15.77 63.08 C4.3 61.91, -0.14 59.09, 0 47.31 M0 47.31 C-0.19 40.33, -0.71 35.58, 0 15.77 M0 47.31 C0.74 40.57, -0.29 32.82, 0 15.77 M0 15.77 C-1.25 5.86, 6.23 1.3, 15.77 0 M0 15.77 C2.14 6.64, 7.02 -1.52, 15.77 0" stroke="#e03131" stroke-width="2" fill="none"></path></g><g transform="translate(802.6306762695312 411.59765625) rotate(0 46.75994873046875 25)"><text x="46.75994873046875" y="0" font-family="Virgil, Segoe UI Emoji" font-size="20px" fill="#e03131" text-anchor="middle" style="white-space: pre;" direction="ltr" dominant-baseline="text-before-edge">Project</text><text x="46.75994873046875" y="25" font-family="Virgil, Segoe UI Emoji" font-size="20px" fill="#e03131" text-anchor="middle" style="white-space: pre;" direction="ltr" dominant-baseline="text-before-edge">Clustered</text></g><g stroke-linecap="round" transform="translate(336.58203125 473.4093017578125) rotate(0 32.20703125 18.5703125)"><path d="M9.29 0 C27.33 -0.21, 43.36 1.7, 55.13 0 M9.29 0 C27.48 -0.27, 44.7 -0.25, 55.13 0 M55.13 0 C61.41 -0.46, 64.1 1.6, 64.41 9.29 M55.13 0 C62.84 -0.45, 63.57 4.88, 64.41 9.29 M64.41 9.29 C64.87 17.81, 64.28 24.87, 64.41 27.86 M64.41 9.29 C65.3 15.44, 64.91 22.84, 64.41 27.86 M64.41 27.86 C64.9 32.76, 61.45 37.48, 55.13 37.14 M64.41 27.86 C65.46 34.48, 60.09 39.21, 55.13 37.14 M55.13 37.14 C37.09 38.33, 21.12 36.76, 9.29 37.14 M55.13 37.14 C40.6 36.75, 24.99 37.97, 9.29 37.14 M9.29 37.14 C2.46 35.28, -1.47 34.25, 0 27.86 M9.29 37.14 C3.43 37.86, -1.13 35.42, 0 27.86 M0 27.86 C-1.49 21.01, -1.35 16.88, 0 9.29 M0 27.86 C0.19 19.7, 0.19 13.22, 0 9.29 M0 9.29 C1.02 5.08, 2.33 1.56, 9.29 0 M0 9.29 C-1.54 4.58, 1.24 -1.87, 9.29 0" stroke="#2f9e44" stroke-width="2" fill="none"></path></g><g transform="translate(353.6370849609375 481.9796142578125) rotate(0 15.1519775390625 10)"><text x="15.1519775390625" y="0" font-family="Virgil, Segoe UI Emoji" font-size="16px" fill="#2f9e44" text-anchor="middle" style="white-space: pre;" direction="ltr" dominant-baseline="text-before-edge">.mgf</text></g><g stroke-linecap="round" transform="translate(408.53125 472.5108642578125) rotate(0 27.943359375 19.955078125)"><path d="M9.98 0 C18.12 -0.36, 33.86 -1.07, 45.91 0 C53.64 2.4, 52.83 4.55, 55.89 9.98 C53.84 12.73, 54.8 24.93, 55.89 29.93 C58.31 38.99, 51.71 42.08, 45.91 39.91 C33.52 36.27, 26.95 40.32, 9.98 39.91 C5.41 40.72, -2.68 38.56, 0 29.93 C2.31 22.32, -2.38 18.85, 0 9.98 C0.55 0.54, 6.53 2.74, 9.98 0" stroke="none" stroke-width="0" fill="#ffd8a8"></path><path d="M9.98 0 C22.04 -1.37, 31.72 0.35, 45.91 0 M9.98 0 C22.79 0.54, 37.63 -1.01, 45.91 0 M45.91 0 C53.79 -1.19, 56.89 3.69, 55.89 9.98 M45.91 0 C54.79 1.76, 55.15 4.97, 55.89 9.98 M55.89 9.98 C55.06 18.36, 57.85 26.08, 55.89 29.93 M55.89 9.98 C56.6 15.57, 55.55 20.68, 55.89 29.93 M55.89 29.93 C54.92 36.54, 51.87 41.79, 45.91 39.91 M55.89 29.93 C57.4 36.54, 51.78 40.8, 45.91 39.91 M45.91 39.91 C30.3 38.51, 15.71 38.91, 9.98 39.91 M45.91 39.91 C36.05 40.16, 25.61 39.83, 9.98 39.91 M9.98 39.91 C4.09 38.87, 0.33 34.63, 0 29.93 M9.98 39.91 C4.96 37.69, 2.1 38.31, 0 29.93 M0 29.93 C0.91 21.4, -0.33 16.99, 0 9.98 M0 29.93 C-0.13 21.75, 0.34 15.32, 0 9.98 M0 9.98 C-0.34 5.04, 5.12 -0.57, 9.98 0 M0 9.98 C0.77 5.5, 3.5 2.23, 9.98 0" stroke="#f08c00" stroke-width="2" fill="none"></path></g><g transform="translate(414.9866256713867 482.4659423828125) rotate(0 21.48798370361328 10)"><text x="21.48798370361328" y="0" font-family="Virgil, Segoe UI Emoji" font-size="16px" fill="#f08c00" text-anchor="middle" style="white-space: pre;" direction="ltr" dominant-baseline="text-before-edge">.meta</text></g><g stroke-linecap="round" transform="translate(553.9189453125 470.5059814453125) rotate(0 32.20703125 18.5703125)"><path d="M9.29 0 C21.27 -0.65, 34.83 1.33, 55.13 0 C61.02 -0.29, 62.83 6.29, 64.41 9.29 C61.67 14.24, 64.5 24.62, 64.41 27.86 C64.91 32.6, 61.68 34.57, 55.13 37.14 C41.5 35.9, 31.62 35.08, 9.29 37.14 C4.77 35.01, 1.26 34.52, 0 27.86 C2.9 25.01, 3.01 18.22, 0 9.29 C2.16 1.08, 3.5 -0.86, 9.29 0" stroke="none" stroke-width="0" fill="#b2f2bb"></path><path d="M9.29 0 C26.7 -1.05, 44.8 -1.55, 55.13 0 M9.29 0 C24.41 -0.16, 37.53 0.24, 55.13 0 M55.13 0 C62.63 1.01, 64.16 1.67, 64.41 9.29 M55.13 0 C60.7 -1.45, 63.37 1.96, 64.41 9.29 M64.41 9.29 C64.1 12.91, 66.25 19.28, 64.41 27.86 M64.41 9.29 C64.45 16.08, 64.55 20.93, 64.41 27.86 M64.41 27.86 C66.4 32.72, 60.69 38.59, 55.13 37.14 M64.41 27.86 C66.14 32.25, 62.37 37.54, 55.13 37.14 M55.13 37.14 C44.68 37.84, 28.75 35.93, 9.29 37.14 M55.13 37.14 C38.17 38.49, 21.32 36.63, 9.29 37.14 M9.29 37.14 C3.02 36.38, 1.28 33.4, 0 27.86 M9.29 37.14 C2.98 38.62, 0.76 35.78, 0 27.86 M0 27.86 C-0.76 23.78, -0.46 17.68, 0 9.29 M0 27.86 C-0.67 22.77, -0.76 16.95, 0 9.29 M0 9.29 C-1.79 3.16, 3.26 -1.61, 9.29 0 M0 9.29 C2.01 1.16, 3.81 0.73, 9.29 0" stroke="#2f9e44" stroke-width="2" fill="none"></path></g><g transform="translate(559.3340072631836 479.0762939453125) rotate(0 26.791969299316406 10)"><text x="26.791969299316406" y="0" font-family="Virgil, Segoe UI Emoji" font-size="16px" fill="#2f9e44" text-anchor="middle" style="white-space: pre;" direction="ltr" dominant-baseline="text-before-edge">.speclib</text></g><g stroke-linecap="round" transform="translate(626.3291015625 469.3770751953125) rotate(0 27.943359375 19.955078125)"><path d="M9.98 0 C19.04 -0.39, 27.12 3.1, 45.91 0 C54.64 2.87, 59.23 0.09, 55.89 9.98 C56.36 13.51, 56.23 17.37, 55.89 29.93 C55.39 34.98, 52.59 39.4, 45.91 39.91 C38.05 37.41, 28.09 40.01, 9.98 39.91 C1.48 41.82, 0.68 39.9, 0 29.93 C1.81 20.88, 0.06 14.99, 0 9.98 C3.57 0.78, 3.2 -0.35, 9.98 0" stroke="none" stroke-width="0" fill="#ffd8a8"></path><path d="M9.98 0 C19.65 -0.18, 29.62 1.98, 45.91 0 M9.98 0 C21.44 0.36, 31.47 -0.86, 45.91 0 M45.91 0 C52.02 -1.26, 54.98 2.34, 55.89 9.98 M45.91 0 C51.67 0.26, 56.27 2.91, 55.89 9.98 M55.89 9.98 C56.5 15.58, 55.95 19.22, 55.89 29.93 M55.89 9.98 C56.89 17.1, 55.58 26.26, 55.89 29.93 M55.89 29.93 C57.39 35.02, 53.48 40.26, 45.91 39.91 M55.89 29.93 C55.21 35.34, 52.53 42.16, 45.91 39.91 M45.91 39.91 C35.4 40.1, 23.57 40.36, 9.98 39.91 M45.91 39.91 C31.68 39.2, 18.17 39.26, 9.98 39.91 M9.98 39.91 C3.23 41.2, 0.66 38.09, 0 29.93 M9.98 39.91 C2.16 41.29, -1.33 35.78, 0 29.93 M0 29.93 C-0.11 22.52, -1.3 15.16, 0 9.98 M0 29.93 C-0.71 23.23, 0.26 15.66, 0 9.98 M0 9.98 C1.75 1.65, 3.94 0.64, 9.98 0 M0 9.98 C0.35 3.93, 1.18 -1.57, 9.98 0" stroke="#f08c00" stroke-width="2" fill="none"></path></g><g transform="translate(632.7844772338867 479.3321533203125) rotate(0 21.48798370361328 10)"><text x="21.48798370361328" y="0" font-family="Virgil, Segoe UI Emoji" font-size="16px" fill="#f08c00" text-anchor="middle" style="white-space: pre;" direction="ltr" dominant-baseline="text-before-edge">.meta</text></g><g stroke-linecap="round" transform="translate(788.7783203125 468.1895751953125) rotate(0 32.20703125 18.5703125)"><path d="M9.29 0 C22.15 -0.85, 37.94 1.54, 55.13 0 C58.26 2.14, 62.98 1.11, 64.41 9.29 C62.16 12.14, 66.89 20.99, 64.41 27.86 C66.04 35.68, 63.55 40.71, 55.13 37.14 C43.26 38.27, 28.69 40.7, 9.29 37.14 C-0.02 39.27, 2.76 33.29, 0 27.86 C-3.09 19.84, 1.19 16.11, 0 9.29 C1.19 -0.1, 5.64 -0.04, 9.29 0" stroke="none" stroke-width="0" fill="#b2f2bb"></path><path d="M9.29 0 C25.66 -1.14, 37.71 0.96, 55.13 0 M9.29 0 C23.09 -0.34, 37.03 0.75, 55.13 0 M55.13 0 C62.7 0.17, 63.26 4.78, 64.41 9.29 M55.13 0 C61.89 -1.82, 63.01 2.68, 64.41 9.29 M64.41 9.29 C66.3 12.72, 62.65 18.09, 64.41 27.86 M64.41 9.29 C63.98 15.21, 64.24 22, 64.41 27.86 M64.41 27.86 C64.35 33.01, 62.38 37.41, 55.13 37.14 M64.41 27.86 C63.1 33.96, 60.29 37.11, 55.13 37.14 M55.13 37.14 C37.85 38.57, 23.5 38.81, 9.29 37.14 M55.13 37.14 C38.41 38.33, 20.54 37.51, 9.29 37.14 M9.29 37.14 C1.79 35.34, -1.25 34.07, 0 27.86 M9.29 37.14 C4.04 37.72, 0.54 35.2, 0 27.86 M0 27.86 C-0.17 23.24, -0.01 21.35, 0 9.29 M0 27.86 C0.41 22.24, 0.39 16.02, 0 9.29 M0 9.29 C1.22 4.11, 2.12 -0.11, 9.29 0 M0 9.29 C-0.15 4.34, 2.53 2.12, 9.29 0" stroke="#2f9e44" stroke-width="2" fill="none"></path></g><g transform="translate(794.1933822631836 476.7598876953125) rotate(0 26.791969299316406 10)"><text x="26.791969299316406" y="0" font-family="Virgil, Segoe UI Emoji" font-size="16px" fill="#2f9e44" text-anchor="middle" style="white-space: pre;" direction="ltr" dominant-baseline="text-before-edge">.speclib</text></g><g stroke-linecap="round" transform="translate(861.1884765625 467.0606689453125) rotate(0 27.943359375 19.955078125)"><path d="M9.98 0 C16.49 1.93, 27.69 -2.19, 45.91 0 C51.39 -0.8, 59.38 0.97, 55.89 9.98 C57.79 16.33, 58.38 22.99, 55.89 29.93 C56.67 37.97, 55.88 42.79, 45.91 39.91 C31.64 42.54, 26.38 39.65, 9.98 39.91 C6.6 40.55, -2.53 33.32, 0 29.93 C1.05 21.21, 2.41 18.81, 0 9.98 C2.38 -0.12, 2.32 2.28, 9.98 0" stroke="none" stroke-width="0" fill="#ffd8a8"></path><path d="M9.98 0 C18.04 -1.44, 26.48 0.71, 45.91 0 M9.98 0 C20.28 -0.19, 28.63 0.57, 45.91 0 M45.91 0 C53.06 -1.59, 54.66 2.96, 55.89 9.98 M45.91 0 C50.71 0.78, 56.15 5.58, 55.89 9.98 M55.89 9.98 C56.39 16.78, 55.7 19.32, 55.89 29.93 M55.89 9.98 C55.79 14.82, 56.35 20.83, 55.89 29.93 M55.89 29.93 C54.74 36.51, 51.66 39.88, 45.91 39.91 M55.89 29.93 C57.21 36.8, 52.38 38.88, 45.91 39.91 M45.91 39.91 C34.04 41.74, 20.69 41.38, 9.98 39.91 M45.91 39.91 C31.53 39.01, 17.83 39.92, 9.98 39.91 M9.98 39.91 C4.15 40.41, 0.47 37.59, 0 29.93 M9.98 39.91 C1.16 37.96, -1.14 36.18, 0 29.93 M0 29.93 C0.19 25.33, 1.76 20.64, 0 9.98 M0 29.93 C0.52 24.2, -0.58 17.4, 0 9.98 M0 9.98 C-0.13 4.41, 2.83 1.84, 9.98 0 M0 9.98 C-0.12 1.63, 2.32 -0.42, 9.98 0" stroke="#f08c00" stroke-width="2" fill="none"></path></g><g transform="translate(867.6438522338867 477.0157470703125) rotate(0 21.48798370361328 10)"><text x="21.48798370361328" y="0" font-family="Virgil, Segoe UI Emoji" font-size="16px" fill="#f08c00" text-anchor="middle" style="white-space: pre;" direction="ltr" dominant-baseline="text-before-edge">.meta</text></g><g stroke-linecap="round"><g transform="translate(283.96775012165006 492.4854112675773) rotate(0 18.711437439174972 0.054416541147020325)"><path d="M-0.04 0.02 C6.16 0.02, 30.66 -0.17, 36.95 -0.24 M-0.73 -0.44 C5.66 -0.36, 31.57 0.22, 37.95 0.28" stroke="#f08c00" stroke-width="2" fill="none"></path></g><g transform="translate(283.96775012165006 492.4854112675773) rotate(0 18.711437439174972 0.054416541147020325)"><path d="M20.26 6.38 C24.76 4.06, 28.57 3.84, 37.95 0.28 M20.26 6.38 C23.77 4.65, 27.3 3.77, 37.95 0.28" stroke="#f08c00" stroke-width="2" fill="none"></path></g><g transform="translate(283.96775012165006 492.4854112675773) rotate(0 18.711437439174972 0.054416541147020325)"><path d="M20.47 -6.41 C24.89 -5.52, 28.65 -2.53, 37.95 0.28 M20.47 -6.41 C23.89 -5.55, 27.37 -3.83, 37.95 0.28" stroke="#f08c00" stroke-width="2" fill="none"></path></g></g><mask></mask><g transform="translate(182.28082680702107 505.8758974402798) rotate(0 48.842933654785156 15.077837911282757)"><text x="0" y="0" font-family="Virgil, Segoe UI Emoji" font-size="12.062270329026184px" fill="#f08c00" text-anchor="start" style="white-space: pre;" direction="ltr" dominant-baseline="text-before-edge">retain 10 best </text><text x="0" y="15.07783791128273" font-family="Virgil, Segoe UI Emoji" font-size="12.062270329026184px" fill="#f08c00" text-anchor="start" style="white-space: pre;" direction="ltr" dominant-baseline="text-before-edge">psms per cluster</text></g><g stroke-linecap="round"><g transform="translate(453.62554940434825 535.4058387028799) rotate(0 -0.6390923472123404 70.88781237877902)"><path d="M-0.64 0.41 C-1.13 24.2, -2.09 118.24, -2.35 141.98 M1.22 -0.43 C1.04 23.05, -0.02 116.39, -0.21 139.96" stroke="#1971c2" stroke-width="2" fill="none"></path></g><g transform="translate(453.62554940434825 535.4058387028799) rotate(0 -0.6390923472123404 70.88781237877902)"><path d="M-8.53 116.38 C-5.1 122.87, -2.54 131.27, -0.21 139.96 M-8.53 116.38 C-5.88 126.43, -2.8 133.92, -0.21 139.96" stroke="#1971c2" stroke-width="2" fill="none"></path></g><g transform="translate(453.62554940434825 535.4058387028799) rotate(0 -0.6390923472123404 70.88781237877902)"><path d="M8.57 116.55 C6.03 122.89, 2.62 131.23, -0.21 139.96 M8.57 116.55 C4.61 126.61, 1.09 134.04, -0.21 139.96" stroke="#1971c2" stroke-width="2" fill="none"></path></g></g><mask></mask><g stroke-linecap="round"><g transform="translate(645.8017789414657 531.7827466266322) rotate(0 -0.06786722234460285 72.37218737877902)"><path d="M0.46 0.93 C0.38 25.22, 0.79 121.76, 0.63 145.83 M-0.75 0.37 C-1.03 24.34, 0.2 120.45, 0.08 144.28" stroke="#1971c2" stroke-width="2" fill="none"></path></g><g transform="translate(645.8017789414657 531.7827466266322) rotate(0 -0.06786722234460285 72.37218737877902)"><path d="M-8.58 120.83 C-3.59 131.36, 0.11 138.76, 0.08 144.28 M-8.58 120.83 C-6.07 128.5, -2.93 138.02, 0.08 144.28" stroke="#1971c2" stroke-width="2" fill="none"></path></g><g transform="translate(645.8017789414657 531.7827466266322) rotate(0 -0.06786722234460285 72.37218737877902)"><path d="M8.52 120.75 C6.74 131.37, 3.67 138.8, 0.08 144.28 M8.52 120.75 C5.04 128.47, 2.2 138.02, 0.08 144.28" stroke="#1971c2" stroke-width="2" fill="none"></path></g></g><mask></mask><g stroke-linecap="round"><g transform="translate(861.7097004965917 528.5766950168834) rotate(0 0.16747949473358403 74.27648425377902)"><path d="M0.44 -1.07 C0.49 23.8, -0.12 124.2, -0.06 149.12 M-0.79 0.98 C-0.9 25.51, -1.4 122.51, -1.21 147.29" stroke="#1971c2" stroke-width="2" fill="none"></path></g><g transform="translate(861.7097004965917 528.5766950168834) rotate(0 0.16747949473358403 74.27648425377902)"><path d="M-9.77 123.8 C-9.29 129.43, -4.26 137.21, -1.21 147.29 M-9.77 123.8 C-6.48 129.74, -4.01 138.31, -1.21 147.29" stroke="#1971c2" stroke-width="2" fill="none"></path></g><g transform="translate(861.7097004965917 528.5766950168834) rotate(0 0.16747949473358403 74.27648425377902)"><path d="M7.33 123.8 C3.21 129.49, 3.65 137.27, -1.21 147.29 M7.33 123.8 C5.68 129.65, 3.21 138.22, -1.21 147.29" stroke="#1971c2" stroke-width="2" fill="none"></path></g></g><mask></mask><g stroke-linecap="round"><g transform="translate(241.67024126579486 725.3229893315382) rotate(0 54.27119009145565 -0.41862029591015926)"><path d="M-0.92 -0.2 C17.1 -0.13, 90.28 -0.17, 108.69 -0.08 M0.8 -1.36 C18.62 -1.58, 89.74 -1.79, 107.82 -1.81" stroke="#f08c00" stroke-width="2" fill="none"></path></g><g transform="translate(241.67024126579486 725.3229893315382) rotate(0 54.27119009145565 -0.41862029591015926)"><path d="M84.35 6.8 C92.22 4.23, 101.99 2.63, 107.82 -1.81 M84.35 6.8 C94.58 4.07, 102.7 0.37, 107.82 -1.81" stroke="#f08c00" stroke-width="2" fill="none"></path></g><g transform="translate(241.67024126579486 725.3229893315382) rotate(0 54.27119009145565 -0.41862029591015926)"><path d="M84.31 -10.3 C92.12 -6.92, 101.91 -2.56, 107.82 -1.81 M84.31 -10.3 C94.42 -6.26, 102.55 -3.2, 107.82 -1.81" stroke="#f08c00" stroke-width="2" fill="none"></path></g></g><mask></mask><g transform="translate(149.61409759521496 698.6532411902796) rotate(0 59.11201477050781 15.077837911282757)"><text x="0" y="0" font-family="Virgil, Segoe UI Emoji" font-size="12.062270329026184px" fill="#f08c00" text-anchor="start" style="white-space: pre;" direction="ltr" dominant-baseline="text-before-edge">Species, Instrument,</text><text x="0" y="15.07783791128273" font-family="Virgil, Segoe UI Emoji" font-size="12.062270329026184px" fill="#f08c00" text-anchor="start" style="white-space: pre;" direction="ltr" dominant-baseline="text-before-edge"> charge</text></g><g stroke-linecap="round"><g transform="translate(1048.19140625 107.9537353515625) rotate(0 0.107421875 266.716796875)"><path d="M0 0 C0.04 88.91, 0.18 444.53, 0.21 533.43 M0 0 C0.04 88.91, 0.18 444.53, 0.21 533.43" stroke="#f08c00" stroke-width="2" fill="none"></path></g></g><mask></mask><g transform="translate(1081.56640625 121.3443603515625) rotate(0 178.015869140625 110)"><text x="0" y="0" font-family="Virgil, Segoe UI Emoji" font-size="16px" fill="#f08c00" text-anchor="start" style="white-space: pre;" direction="ltr" dominant-baseline="text-before-edge">Project Clustrting:</text><text x="0" y="20" font-family="Virgil, Segoe UI Emoji" font-size="16px" fill="#f08c00" text-anchor="start" style="white-space: pre;" direction="ltr" dominant-baseline="text-before-edge">After clustering in the Project Clustered</text><text x="0" y="40" font-family="Virgil, Segoe UI Emoji" font-size="16px" fill="#f08c00" text-anchor="start" style="white-space: pre;" direction="ltr" dominant-baseline="text-before-edge">three files should be keep: </text><text x="0" y="60" font-family="Virgil, Segoe UI Emoji" font-size="16px" fill="#f08c00" text-anchor="start" style="white-space: pre;" direction="ltr" dominant-baseline="text-before-edge">- .meta: A database with all the</text><text x="0" y="80" font-family="Virgil, Segoe UI Emoji" font-size="16px" fill="#f08c00" text-anchor="start" style="white-space: pre;" direction="ltr" dominant-baseline="text-before-edge"> PSMs metadata link to each cluster.</text><text x="0" y="100" font-family="Virgil, Segoe UI Emoji" font-size="16px" fill="#f08c00" text-anchor="start" style="white-space: pre;" direction="ltr" dominant-baseline="text-before-edge">- .msp: the clustering file resulted from </text><text x="0" y="120" font-family="Virgil, Segoe UI Emoji" font-size="16px" fill="#f08c00" text-anchor="start" style="white-space: pre;" direction="ltr" dominant-baseline="text-before-edge">the project. </text><text x="0" y="140" font-family="Virgil, Segoe UI Emoji" font-size="16px" fill="#f08c00" text-anchor="start" style="white-space: pre;" direction="ltr" dominant-baseline="text-before-edge">- .mgf: The mgf from the clustered step</text><text x="0" y="160" font-family="Virgil, Segoe UI Emoji" font-size="16px" fill="#f08c00" text-anchor="start" style="white-space: pre;" direction="ltr" dominant-baseline="text-before-edge">will keep a certain number of spectra psms</text><text x="0" y="180" font-family="Virgil, Segoe UI Emoji" font-size="16px" fill="#f08c00" text-anchor="start" style="white-space: pre;" direction="ltr" dominant-baseline="text-before-edge">from the original project (default number 10).</text><text x="0" y="200" font-family="Virgil, Segoe UI Emoji" font-size="16px" fill="#f08c00" text-anchor="start" style="white-space: pre;" direction="ltr" dominant-baseline="text-before-edge"></text></g><g stroke-linecap="round" transform="translate(547.716796875 578.0948486328125) rotate(0 27.943359375 19.955078125)"><path d="M9.98 0 C22.25 1.54, 32.35 0.2, 45.91 0 C52.02 -1.34, 55.9 2.23, 55.89 9.98 C58.26 18.29, 52.21 24.39, 55.89 29.93 C54.62 38.84, 52.77 42.58, 45.91 39.91 C36.09 41.47, 29.29 41.84, 9.98 39.91 C4.53 38.8, -0.09 33.57, 0 29.93 C-3.41 23.13, 3.18 18.27, 0 9.98 C3.16 6.04, 1.07 1.54, 9.98 0" stroke="none" stroke-width="0" fill="#ffd8a8"></path><path d="M9.98 0 C18.22 1.56, 29.04 -0.86, 45.91 0 M9.98 0 C18.96 -0.11, 26.82 -0.29, 45.91 0 M45.91 0 C53.13 -1.69, 54.47 4.92, 55.89 9.98 M45.91 0 C50.29 0.9, 57.41 4.47, 55.89 9.98 M55.89 9.98 C57.16 16.86, 55.24 21.7, 55.89 29.93 M55.89 9.98 C56.59 14.72, 55.79 19.34, 55.89 29.93 M55.89 29.93 C54.87 37.19, 53.58 38.3, 45.91 39.91 M55.89 29.93 C53.73 36.56, 53.92 37.81, 45.91 39.91 M45.91 39.91 C35.39 40.51, 24.04 39.84, 9.98 39.91 M45.91 39.91 C36.94 40.33, 28.3 39.75, 9.98 39.91 M9.98 39.91 C3.92 38.53, -1.53 34.97, 0 29.93 M9.98 39.91 C3.67 38.39, 2.12 34.84, 0 29.93 M0 29.93 C-0.35 24.62, 1.46 15.65, 0 9.98 M0 29.93 C-0.07 23.94, 1.01 18.33, 0 9.98 M0 9.98 C1.65 4.59, 4.18 -1.83, 9.98 0 M0 9.98 C-1.22 2.54, 2.18 -1.82, 9.98 0" stroke="#f08c00" stroke-width="2" fill="none"></path></g><g transform="translate(560.1161804199219 588.0499267578125) rotate(0 15.543975830078125 10)"><text x="15.543975830078125" y="0" font-family="Virgil, Segoe UI Emoji" font-size="16px" fill="#f08c00" text-anchor="middle" style="white-space: pre;" direction="ltr" dominant-baseline="text-before-edge">.msp</text></g><g stroke-linecap="round" transform="translate(489.93091677503253 537.7095947265625) rotate(0 51.964229112483736 22.5)"><path d="M11.25 0 C35.13 1.99, 64.19 2.1, 92.68 0 C98.58 -3.16, 106.54 1.1, 103.93 11.25 C105.65 19.89, 100.93 25.77, 103.93 33.75 C101.12 40.2, 102.95 48.32, 92.68 45 C69 45.6, 49.75 47.09, 11.25 45 C7.34 46.19, 2.7 42.08, 0 33.75 C-1.46 29.14, -2.7 23.15, 0 11.25 C-1.27 7.05, 4.62 -1.09, 11.25 0" stroke="none" stroke-width="0" fill="#ffc9c9"></path><path d="M11.25 0 C43.6 0.81, 73.63 -0.4, 92.68 0 M11.25 0 C32.67 -0.01, 52.97 0.11, 92.68 0 M92.68 0 C100.92 1.26, 105.51 4.07, 103.93 11.25 M92.68 0 C100.69 -0.03, 103.82 2.6, 103.93 11.25 M103.93 11.25 C105.12 16.8, 104.2 22.32, 103.93 33.75 M103.93 11.25 C103.92 18.51, 104.3 26.04, 103.93 33.75 M103.93 33.75 C105.66 39.8, 99.85 45.54, 92.68 45 M103.93 33.75 C103.38 42.75, 100.61 43.32, 92.68 45 M92.68 45 C73.73 43.22, 57.43 46.08, 11.25 45 M92.68 45 C68.9 44.92, 46.49 45.61, 11.25 45 M11.25 45 C5.7 44.39, 0.29 39.49, 0 33.75 M11.25 45 C2.45 42.81, -0.2 43.54, 0 33.75 M0 33.75 C-0.06 25.69, 1.48 21.96, 0 11.25 M0 33.75 C-0.01 27.57, -0.71 21.09, 0 11.25 M0 11.25 C1.72 5.59, 5.09 0.07, 11.25 0 M0 11.25 C0.12 1.91, 3.54 1.88, 11.25 0" stroke="#e03131" stroke-width="2" fill="none"></path></g><g transform="translate(507.3209118787272 542.7874633252374) rotate(0 34.57423400878906 17.422131401325146)"><text x="34.57423400878906" y="0" font-family="Virgil, Segoe UI Emoji" font-size="13.937705121060127px" fill="#e03131" text-anchor="middle" style="white-space: pre;" direction="ltr" dominant-baseline="text-before-edge">library</text><text x="34.57423400878906" y="17.42213140132516" font-family="Virgil, Segoe UI Emoji" font-size="13.937705121060127px" fill="#e03131" text-anchor="middle" style="white-space: pre;" direction="ltr" dominant-baseline="text-before-edge">generation</text></g><g stroke-linecap="round" transform="translate(758.8987994249837 579.5936279296875) rotate(0 27.943359375 19.955078125)"><path d="M9.98 0 C19.26 0.75, 25.58 -3.25, 45.91 0 C54.31 0.59, 54.01 3.11, 55.89 9.98 C52.89 15.48, 59.32 22.71, 55.89 29.93 C56.49 37.52, 55.83 40.05, 45.91 39.91 C35.53 36.93, 22.15 37.15, 9.98 39.91 C5.95 42.1, -0.93 33.08, 0 29.93 C-2.67 25.38, 2.89 15.77, 0 9.98 C3.43 5.7, 4.45 -3.37, 9.98 0" stroke="none" stroke-width="0" fill="#ffd8a8"></path><path d="M9.98 0 C17.75 -1.25, 27.07 1.78, 45.91 0 M9.98 0 C18.9 0.35, 28.91 0.39, 45.91 0 M45.91 0 C51.37 1.75, 57.85 4.07, 55.89 9.98 M45.91 0 C53.71 -1.05, 54.66 4.47, 55.89 9.98 M55.89 9.98 C56.63 16.73, 57.38 25.92, 55.89 29.93 M55.89 9.98 C55.6 16.67, 55.6 25.68, 55.89 29.93 M55.89 29.93 C54.6 38.29, 51.4 41, 45.91 39.91 M55.89 29.93 C57.39 35.13, 52.08 38.52, 45.91 39.91 M45.91 39.91 C35.31 39.76, 23.12 41.3, 9.98 39.91 M45.91 39.91 C35.21 39.89, 25.72 39.18, 9.98 39.91 M9.98 39.91 C4.55 39.91, -1.6 34.6, 0 29.93 M9.98 39.91 C1.16 38.69, 0.96 35.79, 0 29.93 M0 29.93 C0.31 23.47, -0.38 18.65, 0 9.98 M0 29.93 C-0.55 22.55, 0.37 14.77, 0 9.98 M0 9.98 C-0.66 4.35, 4.98 1.09, 9.98 0 M0 9.98 C0.7 4.75, 1.32 1, 9.98 0" stroke="#f08c00" stroke-width="2" fill="none"></path></g><g transform="translate(771.2981829699056 589.5487060546875) rotate(0 15.543975830078125 10)"><text x="15.543975830078125" y="0" font-family="Virgil, Segoe UI Emoji" font-size="16px" fill="#f08c00" text-anchor="middle" style="white-space: pre;" direction="ltr" dominant-baseline="text-before-edge">.msp</text></g><g stroke-linecap="round" transform="translate(701.1129193250163 539.2083740234375) rotate(0 51.964229112483736 22.5)"><path d="M11.25 0 C38.82 1.97, 61 1.16, 92.68 0 C103.66 0.36, 101.14 0.71, 103.93 11.25 C104.91 17.42, 107.58 21.86, 103.93 33.75 C104.54 43, 101.69 46.01, 92.68 45 C78.23 45.95, 57.6 40.26, 11.25 45 C2.88 41.77, -2.6 38.25, 0 33.75 C3.14 28.78, 0.84 15.68, 0 11.25 C3.59 3.26, 5.54 3.27, 11.25 0" stroke="none" stroke-width="0" fill="#ffc9c9"></path><path d="M11.25 0 C28.84 -2.02, 46.12 -1.44, 92.68 0 M11.25 0 C35.15 0.84, 61.22 0.33, 92.68 0 M92.68 0 C101.18 -0.91, 102.86 4.75, 103.93 11.25 M92.68 0 C102.31 -1.39, 103.95 4.75, 103.93 11.25 M103.93 11.25 C105.5 17.97, 104.5 21.48, 103.93 33.75 M103.93 11.25 C103.19 17.32, 103.26 22.23, 103.93 33.75 M103.93 33.75 C105.24 39.98, 99.76 43.79, 92.68 45 M103.93 33.75 C103.79 39.96, 100.51 44.95, 92.68 45 M92.68 45 C68.64 46.44, 43.84 44.09, 11.25 45 M92.68 45 C66.59 44.65, 38.49 43.66, 11.25 45 M11.25 45 C1.87 43.94, 0.84 40.56, 0 33.75 M11.25 45 C3.15 45.52, 0.6 41.66, 0 33.75 M0 33.75 C1.59 27.99, 1.75 21.36, 0 11.25 M0 33.75 C-0.41 27.19, 0.75 20.15, 0 11.25 M0 11.25 C0.61 4.99, 2 0.87, 11.25 0 M0 11.25 C-1.42 5.4, 3.25 0.46, 11.25 0" stroke="#e03131" stroke-width="2" fill="none"></path></g><g transform="translate(718.5029144287109 544.2862426221124) rotate(0 34.57423400878906 17.422131401325146)"><text x="34.57423400878906" y="0" font-family="Virgil, Segoe UI Emoji" font-size="13.937705121060127px" fill="#e03131" text-anchor="middle" style="white-space: pre;" direction="ltr" dominant-baseline="text-before-edge">library</text><text x="34.57423400878906" y="17.42213140132516" font-family="Virgil, Segoe UI Emoji" font-size="13.937705121060127px" fill="#e03131" text-anchor="middle" style="white-space: pre;" direction="ltr" dominant-baseline="text-before-edge">generation</text></g><g stroke-linecap="round"><g transform="translate(493.7882434586239 486.62063725163216) rotate(0 17.465320486250334 22.555781128779017)"><path d="M0.65 -0.21 C6.43 7.16, 27.98 37.48, 33.89 44.99 M-0.46 -1.36 C5.75 6.13, 29.99 38.57, 36.06 46.47" stroke="#1971c2" stroke-width="2" fill="none"></path></g><g transform="translate(493.7882434586239 486.62063725163216) rotate(0 17.465320486250334 22.555781128779017)"><path d="M15.06 32.91 C19.75 34.25, 24.84 41.15, 36.06 46.47 M15.06 32.91 C20.14 36.98, 27.02 40.97, 36.06 46.47" stroke="#1971c2" stroke-width="2" fill="none"></path></g><g transform="translate(493.7882434586239 486.62063725163216) rotate(0 17.465320486250334 22.555781128779017)"><path d="M28.69 22.58 C30.24 26.43, 32.12 35.76, 36.06 46.47 M28.69 22.58 C29.96 29.6, 33.04 36.48, 36.06 46.47" stroke="#1971c2" stroke-width="2" fill="none"></path></g></g><mask></mask><g stroke-linecap="round"><g transform="translate(708.0924083840932 481.17622331986206) rotate(0 17.465320486250334 22.555781128779017)"><path d="M0.97 0.65 C6.96 8.09, 30.09 37.58, 35.66 44.86 M0.03 -0.06 C5.94 7.56, 29.54 38.71, 35.1 46.26" stroke="#1971c2" stroke-width="2" fill="none"></path></g><g transform="translate(708.0924083840932 481.17622331986206) rotate(0 17.465320486250334 22.555781128779017)"><path d="M14.17 32.58 C21.07 37.42, 25.37 39.11, 35.1 46.26 M14.17 32.58 C19.22 36, 23.03 38.97, 35.1 46.26" stroke="#1971c2" stroke-width="2" fill="none"></path></g><g transform="translate(708.0924083840932 481.17622331986206) rotate(0 17.465320486250334 22.555781128779017)"><path d="M27.86 22.33 C30.98 30.12, 31.48 34.65, 35.1 46.26 M27.86 22.33 C29.6 28.06, 30.19 33.44, 35.1 46.26" stroke="#1971c2" stroke-width="2" fill="none"></path></g></g><mask></mask><g stroke-linecap="round" transform="translate(966.8831744249837 572.5037841796875) rotate(0 27.943359375 19.955078125)"><path d="M9.98 0 C20.65 2.98, 30 -2.01, 45.91 0 C55.33 2.42, 55.41 2.29, 55.89 9.98 C57.55 19.03, 57.73 25.35, 55.89 29.93 C55.6 35.26, 55.69 40.28, 45.91 39.91 C32.49 36.5, 25.84 42.64, 9.98 39.91 C1.36 36.93, 0.13 36.61, 0 29.93 C1.13 22.39, -2.91 19.31, 0 9.98 C0.91 0.15, 2.17 -0.37, 9.98 0" stroke="none" stroke-width="0" fill="#ffd8a8"></path><path d="M9.98 0 C22.94 -0.75, 33.78 -0.76, 45.91 0 M9.98 0 C21 0.17, 32.09 0.78, 45.91 0 M45.91 0 C52.26 0, 54.44 3.19, 55.89 9.98 M45.91 0 C52.05 1.1, 53.95 2.64, 55.89 9.98 M55.89 9.98 C55.01 13.98, 56.22 17.17, 55.89 29.93 M55.89 9.98 C56.42 14.8, 56.42 19.81, 55.89 29.93 M55.89 29.93 C55.57 37.85, 52.93 39.95, 45.91 39.91 M55.89 29.93 C56.08 35.86, 53.92 42.16, 45.91 39.91 M45.91 39.91 C34.48 40.84, 23.91 41.42, 9.98 39.91 M45.91 39.91 C33.05 39.62, 19.35 39.45, 9.98 39.91 M9.98 39.91 C4.54 38.86, -0.59 37.75, 0 29.93 M9.98 39.91 C5.16 38.05, -1.35 37.07, 0 29.93 M0 29.93 C-0.62 25.04, -1.39 22.39, 0 9.98 M0 29.93 C0.63 24.94, -0.6 19.55, 0 9.98 M0 9.98 C-1.26 2.02, 4.69 0.02, 9.98 0 M0 9.98 C1.81 1.1, 3.13 0.43, 9.98 0" stroke="#f08c00" stroke-width="2" fill="none"></path></g><g transform="translate(979.2825579699056 582.4588623046875) rotate(0 15.543975830078125 10)"><text x="15.543975830078125" y="0" font-family="Virgil, Segoe UI Emoji" font-size="16px" fill="#f08c00" text-anchor="middle" style="white-space: pre;" direction="ltr" dominant-baseline="text-before-edge">.msp</text></g><g stroke-linecap="round" transform="translate(909.0972943250163 532.1185302734375) rotate(0 51.964229112483736 22.5)"><path d="M11.25 0 C44.52 3.37, 71.78 -0.1, 92.68 0 C103.16 0.65, 101.83 5.35, 103.93 11.25 C103.84 17.56, 107.25 26.89, 103.93 33.75 C104 39.24, 98.58 42.43, 92.68 45 C73.34 43.25, 58.08 46.25, 11.25 45 C2.71 47.03, -2.56 42.58, 0 33.75 C1.22 25.16, -0.85 22.55, 0 11.25 C-0.02 2.51, 3.15 -3.15, 11.25 0" stroke="none" stroke-width="0" fill="#ffc9c9"></path><path d="M11.25 0 C32.41 1.1, 53.32 -0.08, 92.68 0 M11.25 0 C37.3 -0.67, 62.93 -0.74, 92.68 0 M92.68 0 C99.74 0.95, 102.25 3.15, 103.93 11.25 M92.68 0 C98.13 -1.39, 104.42 2.88, 103.93 11.25 M103.93 11.25 C102.79 17.15, 102.37 25.47, 103.93 33.75 M103.93 11.25 C103.9 18.67, 104.25 24.84, 103.93 33.75 M103.93 33.75 C104.1 40.62, 101.36 46.95, 92.68 45 M103.93 33.75 C104.67 40.84, 98.87 45.58, 92.68 45 M92.68 45 C65.07 47.4, 32.87 46.74, 11.25 45 M92.68 45 C68.73 44.35, 43.27 45.45, 11.25 45 M11.25 45 C5.35 43.38, -1.17 41.67, 0 33.75 M11.25 45 C2.16 47.25, -1.33 40.76, 0 33.75 M0 33.75 C-0.65 28.68, 1.62 22.45, 0 11.25 M0 33.75 C-0.52 25.88, 0.79 19.33, 0 11.25 M0 11.25 C1.57 1.82, 3.58 0.38, 11.25 0 M0 11.25 C0.42 4.89, 2.69 -0.49, 11.25 0" stroke="#e03131" stroke-width="2" fill="none"></path></g><g transform="translate(926.4872894287109 537.1963988721124) rotate(0 34.57423400878906 17.422131401325146)"><text x="34.57423400878906" y="0" font-family="Virgil, Segoe UI Emoji" font-size="13.937705121060127px" fill="#e03131" text-anchor="middle" style="white-space: pre;" direction="ltr" dominant-baseline="text-before-edge">library</text><text x="34.57423400878906" y="17.42213140132516" font-family="Virgil, Segoe UI Emoji" font-size="13.937705121060127px" fill="#e03131" text-anchor="middle" style="white-space: pre;" direction="ltr" dominant-baseline="text-before-edge">generation</text></g><g stroke-linecap="round"><g transform="translate(927.2938860321592 475.7047508291341) rotate(0 17.465320486250334 22.555781128779017)"><path d="M0.82 -0.12 C6.87 7.36, 29.91 36.91, 35.8 44.41 M-0.21 -1.23 C5.8 6.43, 29.27 37.69, 35.3 45.59" stroke="#1971c2" stroke-width="2" fill="none"></path></g><g transform="translate(927.2938860321592 475.7047508291341) rotate(0 17.465320486250334 22.555781128779017)"><path d="M14.3 32.02 C19.49 36.82, 23.95 40.88, 35.3 45.59 M14.3 32.02 C19.92 35.4, 25.88 39.75, 35.3 45.59" stroke="#1971c2" stroke-width="2" fill="none"></path></g><g transform="translate(927.2938860321592 475.7047508291341) rotate(0 17.465320486250334 22.555781128779017)"><path d="M27.94 21.69 C29.56 29.26, 30.5 35.99, 35.3 45.59 M27.94 21.69 C29.58 27.9, 31.65 35.2, 35.3 45.59" stroke="#1971c2" stroke-width="2" fill="none"></path></g></g><mask></mask><g stroke-linecap="round"><g transform="translate(441.5020312920866 755.0693677203822) rotate(0 -0.14495172221234043 57.87804675377902)"><path d="M1.11 -0.22 C1.17 19.29, -0.23 97.08, -0.39 116.48 M0.23 -1.38 C0.19 17.84, -1.28 95.5, -1.39 114.73" stroke="#1971c2" stroke-width="2" fill="none"></path></g><g transform="translate(441.5020312920866 755.0693677203822) rotate(0 -0.14495172221234043 57.87804675377902)"><path d="M-9.63 91.13 C-8.15 96.5, -4.63 102.99, -1.39 114.73 M-9.63 91.13 C-7.87 99.12, -3.88 107.51, -1.39 114.73" stroke="#1971c2" stroke-width="2" fill="none"></path></g><g transform="translate(441.5020312920866 755.0693677203822) rotate(0 -0.14495172221234043 57.87804675377902)"><path d="M7.47 91.35 C4.89 96.82, 4.36 103.27, -1.39 114.73 M7.47 91.35 C3.53 99.27, 1.82 107.58, -1.39 114.73" stroke="#1971c2" stroke-width="2" fill="none"></path></g></g><mask></mask><g stroke-linecap="round" transform="translate(457.08203125 770.3809814453125) rotate(0 32.20703125 18.5703125)"><path d="M9.29 0 C22.78 -1.43, 38.41 1.48, 55.13 0 M9.29 0 C20.64 0.2, 29.64 -0.32, 55.13 0 M55.13 0 C60.34 0.61, 62.78 3.42, 64.41 9.29 M55.13 0 C62.34 1.68, 64.53 3.71, 64.41 9.29 M64.41 9.29 C63.64 16.15, 64.58 19.46, 64.41 27.86 M64.41 9.29 C63.57 14.75, 63.71 19.48, 64.41 27.86 M64.41 27.86 C66.13 35.27, 62.46 35.6, 55.13 37.14 M64.41 27.86 C66.08 32.95, 59.65 35.46, 55.13 37.14 M55.13 37.14 C43.41 38.1, 33.68 37.11, 9.29 37.14 M55.13 37.14 C42.88 36.85, 30.1 37.03, 9.29 37.14 M9.29 37.14 C4.81 37.72, -0.37 35.4, 0 27.86 M9.29 37.14 C2.17 38.09, 1.43 34.07, 0 27.86 M0 27.86 C1.03 22.7, 0.63 18.14, 0 9.29 M0 27.86 C-0.93 20.9, -0.69 14.8, 0 9.29 M0 9.29 C-0.11 4.36, 2.25 -0.7, 9.29 0 M0 9.29 C-2.25 4.96, 1.85 -0.96, 9.29 0" stroke="#2f9e44" stroke-width="2" fill="none"></path></g><g transform="translate(474.1370849609375 778.9512939453125) rotate(0 15.1519775390625 10)"><text x="15.1519775390625" y="0" font-family="Virgil, Segoe UI Emoji" font-size="16px" fill="#2f9e44" text-anchor="middle" style="white-space: pre;" direction="ltr" dominant-baseline="text-before-edge">.mgf</text></g><g stroke-linecap="round" transform="translate(484.8984375 800.1622314453125) rotate(0 27.943359375 19.955078125)"><path d="M9.98 0 C22.93 1.19, 37.14 -0.98, 45.91 0 C54.54 -1.05, 56.08 3.61, 55.89 9.98 C53.92 17.09, 58.32 26.02, 55.89 29.93 C58.67 39.16, 52.37 40.93, 45.91 39.91 C35.19 39.72, 26.06 42.01, 9.98 39.91 C4.69 38, -0.95 33.35, 0 29.93 C2.6 21.72, 2.06 14.71, 0 9.98 C-3.16 5.85, 2.96 0.14, 9.98 0" stroke="none" stroke-width="0" fill="#ffd8a8"></path><path d="M9.98 0 C16.32 -0.08, 25.14 1.72, 45.91 0 M9.98 0 C20.61 0.46, 31.4 0.32, 45.91 0 M45.91 0 C53.45 1.46, 55.99 3.86, 55.89 9.98 M45.91 0 C53.05 -0.67, 56.16 2.43, 55.89 9.98 M55.89 9.98 C55.79 15.27, 56.55 22.4, 55.89 29.93 M55.89 9.98 C56.62 16.6, 56.34 21.23, 55.89 29.93 M55.89 29.93 C57.34 35.63, 51.11 38.45, 45.91 39.91 M55.89 29.93 C54.64 37.88, 53.38 39.4, 45.91 39.91 M45.91 39.91 C33.14 41.1, 22.14 40.32, 9.98 39.91 M45.91 39.91 C37.57 40.11, 27.33 40.5, 9.98 39.91 M9.98 39.91 C2.52 40.74, 1.24 36.61, 0 29.93 M9.98 39.91 C2.07 42.09, 0.75 38.08, 0 29.93 M0 29.93 C0.92 26.09, -0.26 17.54, 0 9.98 M0 29.93 C0.06 25.54, -0.3 19.54, 0 9.98 M0 9.98 C-1.96 4.95, 2.25 -0.84, 9.98 0 M0 9.98 C0.12 3.42, 4.43 2.01, 9.98 0" stroke="#f08c00" stroke-width="2" fill="none"></path></g><g transform="translate(491.3538131713867 810.1173095703125) rotate(0 21.48798370361328 10)"><text x="21.48798370361328" y="0" font-family="Virgil, Segoe UI Emoji" font-size="16px" fill="#f08c00" text-anchor="middle" style="white-space: pre;" direction="ltr" dominant-baseline="text-before-edge">.meta</text></g><g stroke-linecap="round"><g transform="translate(759.0082444812219 749.5874671334494) rotate(0 -0.14495172221234043 57.87804675377902)"><path d="M-0.99 0.89 C-1.02 20.35, -1.31 97.63, -1.35 116.88 M0.68 0.31 C1.12 19.46, 0.72 96.34, 0.8 115.35" stroke="#1971c2" stroke-width="2" fill="none"></path></g><g transform="translate(759.0082444812219 749.5874671334494) rotate(0 -0.14495172221234043 57.87804675377902)"><path d="M-7.73 91.85 C-4.51 94.87, -2.41 99.76, 0.8 115.35 M-7.73 91.85 C-5.6 100.58, -2.48 107.89, 0.8 115.35" stroke="#1971c2" stroke-width="2" fill="none"></path></g><g transform="translate(759.0082444812219 749.5874671334494) rotate(0 -0.14495172221234043 57.87804675377902)"><path d="M9.37 91.86 C9.15 94.74, 7.82 99.63, 0.8 115.35 M9.37 91.86 C5.48 100.48, 2.58 107.79, 0.8 115.35" stroke="#1971c2" stroke-width="2" fill="none"></path></g></g><mask></mask><g stroke-linecap="round" transform="translate(774.5882444391355 764.8990808583798) rotate(0 32.20703125 18.5703125)"><path d="M9.29 0 C21.11 -1.2, 30.24 0.13, 55.13 0 M9.29 0 C19.48 -0.74, 31.19 0.11, 55.13 0 M55.13 0 C60.53 1.3, 63.76 1.3, 64.41 9.29 M55.13 0 C62.09 -2.16, 63.13 2.57, 64.41 9.29 M64.41 9.29 C64.91 11.66, 64.96 17.49, 64.41 27.86 M64.41 9.29 C63.85 15.29, 64.4 22.03, 64.41 27.86 M64.41 27.86 C65.26 34.5, 61.98 39.13, 55.13 37.14 M64.41 27.86 C64.14 35.72, 60.75 38.4, 55.13 37.14 M55.13 37.14 C37.94 38.91, 20.64 37.44, 9.29 37.14 M55.13 37.14 C42.09 36.12, 29.46 36.83, 9.29 37.14 M9.29 37.14 C4.62 35.17, -1.44 32.24, 0 27.86 M9.29 37.14 C2.85 38.15, -1.42 32.36, 0 27.86 M0 27.86 C-0.52 23.51, -1.61 18.7, 0 9.29 M0 27.86 C0.57 21.22, -0.05 14.18, 0 9.29 M0 9.29 C-1.19 1.36, 3.39 1.54, 9.29 0 M0 9.29 C-0.14 1.25, 2.91 -0.07, 9.29 0" stroke="#2f9e44" stroke-width="2" fill="none"></path></g><g transform="translate(791.643298150073 773.4693933583798) rotate(0 15.1519775390625 10)"><text x="15.1519775390625" y="0" font-family="Virgil, Segoe UI Emoji" font-size="16px" fill="#2f9e44" text-anchor="middle" style="white-space: pre;" direction="ltr" dominant-baseline="text-before-edge">.mgf</text></g><g stroke-linecap="round" transform="translate(802.4046506891355 794.6803308583798) rotate(0 27.943359375 19.955078125)"><path d="M9.98 0 C15.93 2.4, 28.49 -2.76, 45.91 0 C49.57 0.06, 58.89 1.7, 55.89 9.98 C52.44 18.44, 53.93 17.17, 55.89 29.93 C55.04 39.48, 51.55 39.86, 45.91 39.91 C31.61 38.36, 17.96 39.34, 9.98 39.91 C6.89 42.09, -1.98 33.47, 0 29.93 C-0.09 22.48, -0.53 17.13, 0 9.98 C2.27 1.48, 5.3 1.55, 9.98 0" stroke="none" stroke-width="0" fill="#ffd8a8"></path><path d="M9.98 0 C16.63 -1.63, 26.57 -1.4, 45.91 0 M9.98 0 C18.35 0.55, 27.19 -1, 45.91 0 M45.91 0 C53.23 -1.88, 54.77 2.86, 55.89 9.98 M45.91 0 C50.68 0.55, 54.94 3.89, 55.89 9.98 M55.89 9.98 C56.92 12.72, 57.42 17.42, 55.89 29.93 M55.89 9.98 C56.34 15.16, 56.24 20.89, 55.89 29.93 M55.89 29.93 C55.65 38.04, 52.07 41.01, 45.91 39.91 M55.89 29.93 C57.7 34.32, 53.79 40.12, 45.91 39.91 M45.91 39.91 C32 38.23, 17.12 39.57, 9.98 39.91 M45.91 39.91 C38.13 38.96, 28.1 39.04, 9.98 39.91 M9.98 39.91 C3.12 40.79, -1.23 35.11, 0 29.93 M9.98 39.91 C2.23 39.66, 1.51 35.91, 0 29.93 M0 29.93 C1.29 22.85, 0.98 18.31, 0 9.98 M0 29.93 C-0.57 23.12, 0.17 18.81, 0 9.98 M0 9.98 C-0.12 1.72, 3.16 -0.06, 9.98 0 M0 9.98 C0.24 4.2, 3.07 -1.26, 9.98 0" stroke="#f08c00" stroke-width="2" fill="none"></path></g><g transform="translate(808.8600263605222 804.6354089833798) rotate(0 21.48798370361328 10)"><text x="21.48798370361328" y="0" font-family="Virgil, Segoe UI Emoji" font-size="16px" fill="#f08c00" text-anchor="middle" style="white-space: pre;" direction="ltr" dominant-baseline="text-before-edge">.meta</text></g><g stroke-linecap="round" transform="translate(366.5 895.7391357421875) rotate(0 281.1015625 20.021484375)"><path d="M10.01 0 C140.43 -4.62, 274.27 -4.59, 552.19 0 C558.14 -2.39, 559.42 2.03, 562.2 10.01 C563.39 17.95, 560.59 20.11, 562.2 30.03 C560.45 34.75, 559.12 41.22, 552.19 40.04 C430.64 41.39, 308.35 42.52, 10.01 40.04 C4.42 38.58, -1.33 38.64, 0 30.03 C-3.32 19.91, -3.23 18.77, 0 10.01 C3.38 2.33, 1.98 -1.61, 10.01 0" stroke="none" stroke-width="0" fill="#b2f2bb"></path><path d="M10.01 0 C203.62 2.55, 398.1 1.68, 552.19 0 M10.01 0 C127.78 1.64, 246.5 1.07, 552.19 0 M552.19 0 C560.55 1.72, 560.66 2.24, 562.2 10.01 M552.19 0 C560.61 -1.71, 561.86 5.23, 562.2 10.01 M562.2 10.01 C562.16 18.11, 561.49 23.89, 562.2 30.03 M562.2 10.01 C562.23 13.82, 561.49 19.49, 562.2 30.03 M562.2 30.03 C563.33 35.05, 559.01 40.2, 552.19 40.04 M562.2 30.03 C563.12 34.45, 559.99 41.39, 552.19 40.04 M552.19 40.04 C357.41 39.91, 162.86 40.15, 10.01 40.04 M552.19 40.04 C441.89 40.06, 331.19 40.41, 10.01 40.04 M10.01 40.04 C3.49 41.77, 1.21 37.5, 0 30.03 M10.01 40.04 C1.85 41.43, 2.28 37.6, 0 30.03 M0 30.03 C0.54 24.22, 1.19 17.47, 0 10.01 M0 30.03 C-0.95 26.35, -0.91 21.71, 0 10.01 M0 10.01 C-0.75 1.56, 3.24 -0.18, 10.01 0 M0 10.01 C0.02 3.13, 4.31 -0.87, 10.01 0" stroke="#2f9e44" stroke-width="2" fill="none"></path></g><g transform="translate(532.4016647338867 903.2606201171875) rotate(0 115.19989776611328 12.5)"><text x="115.19989776611328" y="0" font-family="Virgil, Segoe UI Emoji" font-size="20px" fill="#2f9e44" text-anchor="middle" style="white-space: pre;" direction="ltr" dominant-baseline="text-before-edge">Clustering and combining</text></g><g stroke-linecap="round" transform="translate(667.17578125 935.7274169921875) rotate(0 32.20703125 18.5703125)"><path d="M9.29 0 C20.25 1.65, 30.51 1.86, 55.13 0 M9.29 0 C22.69 -0.64, 34.08 -0.67, 55.13 0 M55.13 0 C62.2 -0.09, 64.51 4.74, 64.41 9.29 M55.13 0 C63.09 -0.76, 65.61 3.33, 64.41 9.29 M64.41 9.29 C63.28 14.31, 65.7 17.42, 64.41 27.86 M64.41 9.29 C63.94 13.08, 63.42 17.5, 64.41 27.86 M64.41 27.86 C64.02 35.96, 62.98 36.08, 55.13 37.14 M64.41 27.86 C63.38 35.67, 61.47 38.96, 55.13 37.14 M55.13 37.14 C38.91 37.67, 20.32 38.94, 9.29 37.14 M55.13 37.14 C40.42 37.03, 24.57 36.95, 9.29 37.14 M9.29 37.14 C4.23 37.15, 0.27 33.56, 0 27.86 M9.29 37.14 C4.22 38.74, -1.83 35.58, 0 27.86 M0 27.86 C0.02 25.29, -0.44 21.06, 0 9.29 M0 27.86 C0.32 22.07, 0.47 14.7, 0 9.29 M0 9.29 C-1.71 2.92, 2.25 -1.27, 9.29 0 M0 9.29 C-1.12 4.43, 3.73 -1.48, 9.29 0" stroke="#2f9e44" stroke-width="2" fill="none"></path></g><g transform="translate(684.2308349609375 944.2977294921875) rotate(0 15.1519775390625 10)"><text x="15.1519775390625" y="0" font-family="Virgil, Segoe UI Emoji" font-size="16px" fill="#2f9e44" text-anchor="middle" style="white-space: pre;" direction="ltr" dominant-baseline="text-before-edge">.mgf</text></g><g stroke-linecap="round" transform="translate(739.125 934.8289794921875) rotate(0 27.943359375 19.955078125)"><path d="M9.98 0 C18.09 -1.03, 29.95 -0.88, 45.91 0 C55.23 -2.08, 54.39 4.97, 55.89 9.98 C56.5 16.86, 56.84 25.79, 55.89 29.93 C58.81 34.55, 50.53 42.6, 45.91 39.91 C37.5 38.77, 28.8 42.84, 9.98 39.91 C3.19 38.95, -2.34 37.72, 0 29.93 C-0.8 25.13, -0.22 18.03, 0 9.98 C1.25 2.24, 4.97 -3.02, 9.98 0" stroke="none" stroke-width="0" fill="#ffd8a8"></path><path d="M9.98 0 C23.25 -0.75, 36.85 1.63, 45.91 0 M9.98 0 C18.19 0.27, 25.58 1.13, 45.91 0 M45.91 0 C54.1 -0.66, 56.93 3.53, 55.89 9.98 M45.91 0 C51.79 -1.39, 57.15 2.06, 55.89 9.98 M55.89 9.98 C54.77 14.18, 57.77 21.47, 55.89 29.93 M55.89 9.98 C55.51 15.64, 56.54 18.86, 55.89 29.93 M55.89 29.93 C54.99 38, 52.69 41.49, 45.91 39.91 M55.89 29.93 C57.66 34.65, 54.65 41.15, 45.91 39.91 M45.91 39.91 C35.78 39.59, 24.95 42.12, 9.98 39.91 M45.91 39.91 C36.9 39.76, 26.89 39.52, 9.98 39.91 M9.98 39.91 C4.3 41.3, -1.59 37.92, 0 29.93 M9.98 39.91 C1.04 38.77, -1.65 36.5, 0 29.93 M0 29.93 C0.67 20.85, -1.67 15.78, 0 9.98 M0 29.93 C-0.92 23.07, -0.49 15.76, 0 9.98 M0 9.98 C-0.98 4.48, 3.88 -1.29, 9.98 0 M0 9.98 C0.44 1.32, 1.23 2.1, 9.98 0" stroke="#f08c00" stroke-width="2" fill="none"></path></g><g transform="translate(745.5803756713867 944.7840576171875) rotate(0 21.48798370361328 10)"><text x="21.48798370361328" y="0" font-family="Virgil, Segoe UI Emoji" font-size="16px" fill="#f08c00" text-anchor="middle" style="white-space: pre;" direction="ltr" dominant-baseline="text-before-edge">.meta</text></g><g stroke-linecap="round" transform="translate(688.5745806749837 1069.795991717712) rotate(0 27.943359375 19.955078125)"><path d="M9.98 0 C17.49 0.63, 30.37 -1.99, 45.91 0 C52.38 1.12, 56.87 2.59, 55.89 9.98 C58.93 16.79, 56.24 22.36, 55.89 29.93 C57.1 36.48, 55.88 42.73, 45.91 39.91 C34.53 37.46, 19.08 37.95, 9.98 39.91 C3.93 38.15, -2.28 38.85, 0 29.93 C2.63 24.18, 1.06 12.18, 0 9.98 C-3.4 2.43, 5.97 1.01, 9.98 0" stroke="none" stroke-width="0" fill="#ffd8a8"></path><path d="M9.98 0 C19.54 -0.81, 25.34 1.81, 45.91 0 M9.98 0 C22.25 0.85, 33.29 -0.52, 45.91 0 M45.91 0 C51.16 0.76, 54.17 4.46, 55.89 9.98 M45.91 0 C54.68 0.72, 55.9 2.43, 55.89 9.98 M55.89 9.98 C56.82 19.07, 54.21 27.25, 55.89 29.93 M55.89 9.98 C55.31 15.68, 56.88 21.24, 55.89 29.93 M55.89 29.93 C57.35 38.31, 51.02 38.69, 45.91 39.91 M55.89 29.93 C55.01 38.48, 54.74 41.15, 45.91 39.91 M45.91 39.91 C35.2 41.27, 22.3 40.75, 9.98 39.91 M45.91 39.91 C32.2 40.1, 19.57 39.18, 9.98 39.91 M9.98 39.91 C4.99 38.76, -0.96 35.08, 0 29.93 M9.98 39.91 C2.17 42.01, -0.71 37.63, 0 29.93 M0 29.93 C0.54 21.6, -1.39 16.07, 0 9.98 M0 29.93 C-0.9 24.72, -0.15 18.73, 0 9.98 M0 9.98 C-1.3 1.65, 4.42 0.28, 9.98 0 M0 9.98 C-1.7 4.65, 2.22 -1.28, 9.98 0" stroke="#f08c00" stroke-width="2" fill="none"></path></g><g transform="translate(700.9739642199056 1079.751069842712) rotate(0 15.543975830078125 10)"><text x="15.543975830078125" y="0" font-family="Virgil, Segoe UI Emoji" font-size="16px" fill="#f08c00" text-anchor="middle" style="white-space: pre;" direction="ltr" dominant-baseline="text-before-edge">.msp</text></g><g stroke-linecap="round" transform="translate(630.7887005750163 1029.410737811462) rotate(0 51.964229112483736 22.5)"><path d="M11.25 0 C37.35 1.85, 64.79 0, 92.68 0 C99.9 0, 103.39 6.8, 103.93 11.25 C105.18 18.51, 107.29 28.8, 103.93 33.75 C107.4 38.45, 97.66 47.87, 92.68 45 C73.36 42.62, 50.56 46.65, 11.25 45 C5.77 48.25, -0.59 44.21, 0 33.75 C-3.56 25.25, 2.49 19.56, 0 11.25 C-0.95 2.11, 2.83 0.86, 11.25 0" stroke="none" stroke-width="0" fill="#ffc9c9"></path><path d="M11.25 0 C31.64 -2.46, 49.86 0.76, 92.68 0 M11.25 0 C40.05 0.99, 69.39 1.18, 92.68 0 M92.68 0 C102.02 0.63, 103.94 2.97, 103.93 11.25 M92.68 0 C102.27 1.06, 102.17 4.72, 103.93 11.25 M103.93 11.25 C103.27 20.45, 103.28 26.29, 103.93 33.75 M103.93 11.25 C104.86 19.25, 103.36 24.91, 103.93 33.75 M103.93 33.75 C103.16 42.9, 102.07 46.08, 92.68 45 M103.93 33.75 C104.03 40.71, 101.31 45.26, 92.68 45 M92.68 45 C65.03 43.99, 32.39 45.16, 11.25 45 M92.68 45 C64.87 44.09, 34.92 43.91, 11.25 45 M11.25 45 C2.75 46.82, -0.62 42.16, 0 33.75 M11.25 45 C4.84 46.39, -0.87 42.01, 0 33.75 M0 33.75 C-0.4 27.65, 0.71 21.41, 0 11.25 M0 33.75 C-0.59 25.64, 0.6 19.34, 0 11.25 M0 11.25 C-1.48 4.9, 2.79 -1.11, 11.25 0 M0 11.25 C-1.23 4.35, 4.42 -0.86, 11.25 0" stroke="#e03131" stroke-width="2" fill="none"></path></g><g transform="translate(648.1786956787109 1034.488606410137) rotate(0 34.57423400878906 17.422131401325146)"><text x="34.57423400878906" y="0" font-family="Virgil, Segoe UI Emoji" font-size="13.937705121060127px" fill="#e03131" text-anchor="middle" style="white-space: pre;" direction="ltr" dominant-baseline="text-before-edge">library</text><text x="34.57423400878906" y="17.42213140132516" font-family="Virgil, Segoe UI Emoji" font-size="13.937705121060127px" fill="#e03131" text-anchor="middle" style="white-space: pre;" direction="ltr" dominant-baseline="text-before-edge">generation</text></g><g stroke-linecap="round"><g transform="translate(615.8960272586078 958.5991240865317) rotate(0 26.840320486250334 32.41710925377902)"><path d="M0.83 0.75 C9.99 11.53, 45.2 53.18, 53.87 63.94 M-0.19 0.09 C8.92 11.07, 43.78 54.49, 53.02 65" stroke="#1971c2" stroke-width="2" fill="none"></path></g><g transform="translate(615.8960272586078 958.5991240865317) rotate(0 26.840320486250334 32.41710925377902)"><path d="M31.4 52.45 C37.06 55.23, 38.82 56.12, 53.02 65 M31.4 52.45 C39.53 56.89, 45.93 60.43, 53.02 65" stroke="#1971c2" stroke-width="2" fill="none"></path></g><g transform="translate(615.8960272586078 958.5991240865317) rotate(0 26.840320486250334 32.41710925377902)"><path d="M44.53 41.49 C47.39 46.64, 46.42 49.81, 53.02 65 M44.53 41.49 C48.12 49.71, 50.08 56.96, 53.02 65" stroke="#1971c2" stroke-width="2" fill="none"></path></g></g><mask></mask><g stroke-linecap="round"><g transform="translate(1048.810546875 689.5516357421875) rotate(0 -2.23046875 199.73828125)"><path d="M0 0 C-0.74 66.58, -3.72 332.9, -4.46 399.48 M0 0 C-0.74 66.58, -3.72 332.9, -4.46 399.48" stroke="#1971c2" stroke-width="2" fill="none"></path></g></g><mask></mask><g transform="translate(1062.835693359375 697.414794921875) rotate(0 216.79183959960938 20)"><text x="0" y="0" font-family="Virgil, Segoe UI Emoji" font-size="16px" fill="#f08c00" text-anchor="start" style="white-space: pre;" direction="ltr" dominant-baseline="text-before-edge">Global clustering: </text><text x="0" y="20" font-family="Virgil, Segoe UI Emoji" font-size="16px" fill="#f08c00" text-anchor="start" style="white-space: pre;" direction="ltr" dominant-baseline="text-before-edge">- Clustering of all spectra together from all projects </text></g></svg>